<svg width="206" height="40" viewBox="0 0 206 40" fill="none" xmlns="http://www.w3.org/2000/svg">
<g clip-path="url(#clip0_7_1052)">
<path d="M17.6553 4.49717C18.2329 4.50602 18.774 4.55374 19.2209 5.01593C19.4324 5.23471 19.7989 5.31385 20.0999 5.44622C20.5009 5.62259 20.7153 5.55003 20.9305 5.18015C21.3773 4.41204 21.5705 4.36539 22.4354 4.67393C23.0848 4.90563 23.7529 5.09148 24.4209 5.26776C24.6487 5.32785 24.9048 5.3258 25.1425 5.30172C25.8853 5.2265 25.9455 5.24387 26.2841 5.88792C26.8389 6.94302 27.5362 7.90453 28.2609 8.85279C28.4831 9.14358 28.5896 9.52014 28.7401 9.86116C28.8345 10.0749 28.8931 10.3053 29.0009 10.5117C29.5372 11.5388 30.3097 12.3566 31.259 13.0461C31.551 13.2581 31.7504 13.6518 31.8782 14.002C32.0052 14.3502 32.1826 14.5627 32.5475 14.5589C32.85 14.5557 33.1648 14.5239 33.4512 14.4347C34.0428 14.2505 34.63 14.0973 35.2206 14.18C35.4145 15.2978 35.0482 16.2346 34.5327 17.2031C34.2076 17.8139 33.8451 18.2751 33.2905 18.6664C32.1023 19.5048 31.3469 20.7437 30.3894 21.7947C30.1556 22.0514 30.1591 22.5467 30.1261 22.9382C30.066 23.6505 30.2538 24.3027 30.7759 24.8362C30.8085 24.8695 30.8438 24.9226 30.8405 24.9635C30.7696 25.8315 30.9945 26.7231 30.6011 27.5671C30.457 27.8762 30.3125 28.1545 29.8933 28.222C29.8544 28.2255 29.8198 28.2359 29.8198 28.2359C29.7797 28.2507 29.7395 28.2655 29.6559 28.2578C29.4232 28.0194 29.3264 27.3125 29.5328 27.1904C29.6884 27.0984 29.9658 27.2036 30.1891 27.2188C30.2142 27.2205 30.2402 27.207 30.2657 27.2002C30.6344 26.6061 30.5542 25.8464 29.9691 25.3532C29.9902 25.7223 30.0248 25.9951 30.0122 26.2657C30.0068 26.3798 29.9016 26.4893 29.8418 26.6009C29.7905 26.4967 29.7052 26.3957 29.6942 26.2876C29.66 25.9523 29.7399 25.5786 29.6131 25.2872C29.487 24.9977 29.5694 24.7996 29.7322 24.6598C30.0446 24.3915 29.9206 24.1446 29.7665 23.8948C29.5329 23.516 29.1375 23.1917 29.4523 22.676C28.9194 22.6494 28.8325 22.5877 28.9852 22.3691C29.2769 21.9511 29.1288 21.532 29.0386 21.1164C28.9952 20.9161 28.862 20.7608 28.6316 21.027C28.4101 21.0211 28.1657 20.9621 28.3065 20.7523C28.4899 20.4791 28.6345 20.2708 28.3957 19.9657C28.3567 19.9158 28.4371 19.7687 28.4751 19.6712C28.5407 19.5029 28.6163 19.3382 28.7066 19.1279C28.8465 19.1279 29.007 19.1279 29.2292 19.1279C29.1047 18.9763 29.0263 18.8809 28.9751 18.8186C29.0796 18.6098 29.1746 18.4414 29.2499 18.2649C29.3727 17.9771 29.3453 17.5715 29.9759 17.649C29.7937 17.5043 29.7346 17.4199 29.6607 17.4049C29.299 17.3316 28.9354 17.2569 28.5685 17.2217C28.2792 17.194 27.7911 16.816 27.8808 16.5935C28.0247 16.2362 27.9097 15.9551 27.7954 15.6289C27.7109 15.3876 27.6057 15.291 27.3639 15.2448C27.2486 15.2227 27.1049 15.1065 27.062 14.9994C26.8497 14.4691 26.6668 13.9276 26.4423 13.303C26.8166 13.378 27.1481 13.4443 27.458 13.5064C27.4232 13.6641 27.3303 13.8431 27.3822 13.9036C27.474 14.0105 27.654 14.0453 27.797 14.1102C27.8511 13.9865 27.917 13.8663 27.9568 13.7384C28.0609 13.4043 27.8312 13.3431 27.5725 13.2775C27.4168 13.238 27.2785 13.133 27.1324 13.0575C27.1534 13.006 27.1744 12.9544 27.1954 12.9029C27.4735 12.9029 27.7516 12.9029 28.1536 12.9029C27.8939 12.64 27.7422 12.4379 27.5447 12.2971C27.1847 12.0405 26.8074 11.8157 27.1665 11.2044C26.9028 11.2673 26.7655 11.3309 26.6326 11.3232C26.4953 11.3153 26.3636 11.2086 26.2267 11.2023C26.1447 11.1985 26.0484 11.295 25.9751 11.3634C25.9064 11.4273 25.8596 11.5136 25.785 11.6147C25.609 11.178 25.8161 10.951 26.2647 10.9473C26.4755 10.9455 26.6974 10.8615 26.8903 10.7678C26.9771 10.7257 27.0053 10.5686 27.06 10.4636C26.9234 10.436 26.7783 10.3669 26.6521 10.3911C26.4874 10.4227 26.3433 10.5474 26.179 10.594C26.0974 10.6171 25.9459 10.5831 25.907 10.524C25.8631 10.4575 25.882 10.3191 25.9256 10.2389C25.9718 10.1538 26.0748 10.0946 26.1606 10.0344C26.3602 9.89463 26.3624 9.76548 26.1439 9.64947C25.9968 9.57136 25.8437 9.50401 25.6407 9.40661C25.6173 9.57258 25.5946 9.6834 25.5876 9.79515C25.5754 9.98752 25.5611 10.2124 25.3006 10.1604C25.2103 10.1423 25.1158 9.90411 25.1103 9.7632C25.0886 9.21127 24.89 9.02423 24.3139 9.06761C23.9481 9.09516 23.5822 9.12134 23.2129 9.14838C23.1954 8.94439 23.1948 8.72292 23.1501 8.51028C23.13 8.41473 23.0084 8.25543 22.9556 8.2637C22.4913 8.33651 22.4919 8.09821 22.5715 7.77433C22.5871 7.71075 22.5425 7.63307 22.537 7.60968C22.3299 7.60968 22.0271 7.64653 22.0147 7.60346C21.9529 7.38954 21.9661 7.15462 21.9562 6.92697C21.9519 6.82814 21.9555 6.72899 21.9555 6.62998C21.5049 7.32964 21.4371 7.37131 20.9913 7.14856C21.307 6.87836 21.3285 6.59264 21.0633 6.26118C20.9901 6.32725 20.9615 6.35352 20.9324 6.37924C20.8183 6.47997 20.6766 6.68024 20.5961 6.65906C20.4556 6.62209 20.3477 6.45316 20.2358 6.33105C20.1671 6.2561 20.1358 6.13088 20.0545 6.08769C19.6889 5.89338 19.3114 5.72034 18.9099 5.52591C18.9138 5.44595 18.9207 5.30588 18.9256 5.20801C18.5224 5.09323 18.1445 5.00671 17.7879 4.86819C17.7062 4.83647 17.6975 4.62559 17.6553 4.49717Z" fill="#B49275"/>
<path d="M17.6507 4.47282C17.6977 4.62575 17.7064 4.83663 17.788 4.86835C18.1447 5.00687 18.5226 5.09339 18.9257 5.20817C18.9209 5.30604 18.914 5.44611 18.9101 5.52607C19.3116 5.7205 19.6891 5.89354 20.0547 6.08785C20.1359 6.13104 20.1673 6.25626 20.236 6.33121C20.3479 6.45332 20.4558 6.62225 20.5963 6.65922C20.6768 6.6804 20.8185 6.48012 20.9325 6.3794C20.9616 6.35368 20.9902 6.3274 21.0634 6.26134C21.3287 6.5928 21.3072 6.87851 20.9914 7.14872C21.4372 7.37147 21.5051 7.3298 21.9556 6.63014C21.9556 6.72915 21.952 6.8283 21.9564 6.92712C21.9663 7.15478 21.9531 7.3897 22.0149 7.60362C22.0273 7.64669 22.3301 7.60984 22.5372 7.60984C22.5427 7.63323 22.5873 7.7109 22.5717 7.77449C22.4921 8.09837 22.4915 8.33666 22.9558 8.26386C23.0086 8.25559 23.1302 8.41489 23.1503 8.51044C23.195 8.72307 23.1956 8.94455 23.213 9.14854C23.5823 9.1215 23.9482 9.09532 24.314 9.06777C24.8902 9.02438 25.0888 9.21142 25.1105 9.76335C25.116 9.90426 25.2105 10.1425 25.3008 10.1605C25.5612 10.2125 25.5756 9.98768 25.5877 9.79531C25.5948 9.68355 25.6175 9.57274 25.6408 9.40676C25.8439 9.50417 25.997 9.57151 26.1441 9.64963C26.3626 9.76564 26.3604 9.89479 26.1608 10.0346C26.0749 10.0947 25.9719 10.154 25.9257 10.239C25.8822 10.3192 25.8633 10.4576 25.9072 10.5242C25.9461 10.5832 26.0976 10.6172 26.1791 10.5941C26.3434 10.5476 26.4875 10.4229 26.6522 10.3913C26.7785 10.367 26.9235 10.4362 27.0602 10.4638C27.0054 10.5687 26.9772 10.7258 26.8905 10.7679C26.6975 10.8616 26.4757 10.9457 26.2649 10.9474C25.8163 10.9512 25.6091 11.1782 25.7851 11.6148C25.8598 11.5137 25.9066 11.4275 25.9752 11.3635C26.0486 11.2952 26.1449 11.1987 26.2269 11.2025C26.3638 11.2088 26.4955 11.3155 26.6328 11.3234C26.7657 11.331 26.903 11.2675 27.1666 11.2046C26.8076 11.8158 27.1849 12.0407 27.5448 12.2972C27.7424 12.438 27.8941 12.6402 28.1538 12.9031C27.7518 12.9031 27.4737 12.9031 27.1955 12.9031C27.1745 12.9546 27.1535 13.0061 27.1325 13.0576C27.2787 13.1332 27.417 13.2382 27.5727 13.2777C27.8314 13.3432 28.061 13.4045 27.957 13.7385C27.9172 13.8665 27.8512 13.9867 27.7972 14.1104C27.6542 14.0454 27.4742 14.0107 27.3824 13.9038C27.3305 13.8433 27.4234 13.6642 27.4582 13.5065C27.1483 13.4445 26.8168 13.3781 26.4425 13.3032C26.667 13.9278 26.8499 14.4692 27.0622 14.9995C27.1051 15.1066 27.2488 15.2228 27.3641 15.2449C27.6058 15.2912 27.711 15.3877 27.7956 15.629C27.9099 15.9552 28.0249 16.2364 27.8809 16.5936C27.7913 16.8161 28.2794 17.1941 28.5687 17.2219C28.9356 17.257 29.2992 17.3318 29.6609 17.4051C29.7348 17.4201 29.7939 17.5044 29.976 17.6491C29.3454 17.5717 29.3729 17.9772 29.25 18.2651C29.1747 18.4415 29.0798 18.61 28.9753 18.8188C29.0265 18.8811 29.1048 18.9765 29.2294 19.128C29.0072 19.128 28.8466 19.128 28.7068 19.128C28.6164 19.3384 28.5408 19.503 28.4753 19.6714C28.4373 19.7688 28.3568 19.9159 28.3959 19.9658C28.6347 20.271 28.49 20.4793 28.3067 20.7525C28.1659 20.9623 28.4103 21.0212 28.6238 21.0508C28.4252 21.3371 28.7135 21.4986 28.7868 21.697C28.8559 21.8842 28.9848 22.0551 28.7515 22.2591C28.681 22.0969 28.6278 21.9748 28.5598 21.8183C28.2261 22.0034 28.4379 22.2503 28.3946 22.4404C28.2286 22.2503 28.1079 22.0517 27.9449 21.895C27.6708 21.6313 27.3578 21.4058 27.0885 21.138C27.0188 21.0687 27.0123 20.8919 27.0427 20.7818C27.1595 20.3598 27.3108 19.9448 27.0404 19.5853C27.1884 19.3933 27.319 19.2242 27.4849 19.0524C28.1258 19.0319 28.1814 18.9803 28.0447 18.4042C27.9512 18.0103 27.8043 17.6286 27.6971 17.2197C27.771 16.8629 27.5365 16.7278 27.2857 16.603C27.2851 16.6024 27.2852 16.6008 27.2731 16.5865C27.2438 16.554 27.2248 16.5377 27.2041 16.5242C27.2041 16.5251 27.2015 16.5259 27.2001 16.4973C26.9424 16.1579 26.731 15.7907 26.417 15.5527C26.1149 15.3239 25.7066 15.2287 25.247 15.0331C24.9173 15.1613 24.0246 15.0931 23.8851 14.4337C23.8159 14.1069 23.6573 13.9351 23.249 14.0903C22.8763 14.2319 22.4773 13.9506 22.4469 13.714C22.2575 13.5794 22.0862 13.5207 22.0385 13.4109C21.9354 13.1733 21.8038 13.1987 21.6253 13.2924C21.5479 13.333 21.4672 13.3677 21.3439 13.4259C21.3704 12.9518 21.3686 12.5238 20.6844 12.4794C20.8772 12.3604 20.9889 12.2914 21.1257 12.207C20.9863 12.0791 20.8747 11.9767 20.7403 11.8534C20.8494 11.7538 20.9627 11.6893 21.0126 11.5933C21.0572 11.5075 21.0753 11.3624 21.0298 11.2862C20.8247 10.9422 20.5929 10.6135 20.3706 10.2792C20.4144 10.2828 20.4582 10.2863 20.5019 10.2898C20.5854 10.1137 20.6689 9.93755 20.7885 9.68506C20.5285 9.71841 20.4156 9.7329 20.3181 9.74541C20.3386 9.56131 20.3564 9.40071 20.3846 9.14755C20.0623 9.42394 19.8508 9.60536 19.6301 9.79466C19.5155 9.57563 19.4744 9.34672 19.357 9.29977C18.9207 9.12528 18.9502 8.78484 18.9753 8.44461C18.9888 8.26221 19.0573 8.08368 19.107 7.87863C18.52 7.84037 18.8869 8.39321 18.6173 8.6047C18.5021 8.45979 18.3956 8.32584 18.2782 8.1781C17.7044 8.4926 17.8966 7.86468 17.731 7.74077C17.4832 7.75147 17.2839 7.77664 17.0876 7.76201C16.9799 7.75398 16.7894 7.67946 16.7891 7.63388C16.7881 7.49455 16.8435 7.3455 16.9128 7.21897C16.9477 7.15531 17.0602 7.13221 17.1874 7.06413C17.0494 6.83301 16.9681 6.58146 16.7946 6.43207C16.4888 6.16883 16.12 5.97655 15.7927 5.73504C15.7086 5.67293 15.6298 5.5351 15.6356 5.43699C15.6671 4.90712 15.2895 4.70528 14.8775 4.50634C14.8576 4.50612 14.8178 4.5056 14.8111 4.47956C14.7418 4.37019 14.6916 4.22951 14.6145 4.21375C14.3252 4.15453 14.1274 4.04877 14.128 3.71966C14.128 3.68164 13.9842 3.60944 13.9079 3.61046C13.068 3.62176 12.2268 3.62165 11.3891 3.67337C10.9516 3.70038 10.5477 3.75996 10.3662 3.2482C10.374 3.22981 10.3818 3.21141 10.4088 3.16144C10.4281 3.12987 10.4448 3.10709 10.4448 3.10709C10.6329 3.07935 10.8539 2.97588 11.0031 3.03769C11.5037 3.24507 11.9657 3.12123 12.4443 2.9917C12.8294 2.88748 13.2186 2.77403 13.6134 2.73257C14.4006 2.64992 15.1927 2.6103 15.9833 2.55961C16.8821 2.50198 17.25 3.01296 17.2373 3.7267C17.236 3.80565 17.2397 3.88468 17.2436 4.02817C17.2743 4.22569 17.1918 4.45187 17.4843 4.36269C17.5382 4.39123 17.5921 4.41976 17.6507 4.47282ZM26.4585 12.4127C26.5507 12.4463 26.6429 12.48 26.7856 12.532C26.7992 12.2633 26.81 12.0507 26.8207 11.8381C26.7664 11.8261 26.7121 11.8141 26.6578 11.8022C26.5773 11.9962 26.4969 12.1903 26.4585 12.4127ZM25.3106 11.6586C25.2718 11.7602 25.2329 11.8619 25.1941 11.9635C25.2555 11.9649 25.317 11.9663 25.3784 11.9677C25.3727 11.8666 25.367 11.7655 25.3106 11.6586ZM28.5289 18.1835C28.4839 18.1833 28.4388 18.1831 28.3938 18.1829C28.403 18.2177 28.4123 18.2524 28.4215 18.2872C28.4606 18.2654 28.4998 18.2436 28.5289 18.1835ZM21.932 8.2585C21.9237 8.23146 21.9158 8.20424 21.9056 8.17792C21.9051 8.17674 21.8828 8.18369 21.8706 8.18685C21.8812 8.21324 21.8917 8.23964 21.932 8.2585ZM24.6058 9.65781C24.6376 9.6597 24.6694 9.66159 24.7012 9.66348C24.7017 9.65147 24.7021 9.63946 24.7026 9.62745C24.6707 9.62779 24.6388 9.62813 24.6058 9.65781ZM21.5429 7.52698C21.5432 7.49909 21.544 7.47117 21.5424 7.4434C21.5423 7.44182 21.5217 7.4414 21.5106 7.44044C21.5122 7.46853 21.5138 7.49662 21.5429 7.52698ZM22.8935 9.39502C22.9063 9.40404 22.9191 9.41306 22.9318 9.42208C22.9238 9.40889 22.9157 9.3957 22.8935 9.39502Z" fill="#B49275"/>
<path d="M23.1122 36.3469C23.1122 36.3469 23.0947 36.3638 23.0569 36.365C22.9576 36.3906 22.8961 36.4151 22.8346 36.4396C21.9656 36.6967 21.0869 36.8681 20.171 36.7522C19.572 36.6764 19.3295 36.3978 19.2713 35.8024C19.2315 35.394 19.1307 34.9893 19.029 34.5897C18.9924 34.4459 18.9049 34.2809 18.7874 34.1959C18.0695 33.6769 17.9857 32.895 17.9357 32.1393C17.8761 31.2385 17.5971 30.4155 17.136 29.6655C16.6622 28.8951 16.3936 28.1155 16.6071 27.225C16.6548 27.0264 16.7596 26.8363 16.8629 26.6557C17.6834 25.2216 17.5617 23.7886 16.883 22.3469C16.5545 21.6491 16.0782 21.0659 15.5091 20.5445C15.1464 20.2122 15.1097 20.0404 15.3969 19.6726C15.7432 19.2291 15.6275 18.728 15.6859 18.2031C15.765 18.0907 15.8177 18.0175 15.8941 17.9546C15.9782 18.185 16.0167 18.414 16.1049 18.623C16.21 18.8718 16.1199 19.0223 15.9584 19.218C15.7467 19.4745 15.601 19.7853 15.4484 20.0833C15.4241 20.1307 15.4958 20.2473 15.5511 20.3074C15.7821 20.5587 16.0346 20.7917 16.2585 21.0486C16.484 21.3074 16.685 21.5867 16.8822 21.8385C17.0422 21.7123 17.151 21.5721 17.289 21.5347C17.402 21.5041 17.5499 21.5959 17.6823 21.6335C17.6048 21.7362 17.5439 21.8596 17.4447 21.9354C17.3595 22.0005 17.2307 22.0113 17.0535 22.0676C17.2923 22.3646 17.4696 22.6396 17.7024 22.8582C17.9115 23.0546 18.1817 23.189 18.4418 23.362C17.9571 23.6784 17.7023 24.038 17.7275 24.5677C17.7427 24.8868 17.7798 25.2059 17.5404 25.5055C17.4414 25.6294 17.524 25.8917 17.524 26.0911C17.5802 26.1029 17.6364 26.1148 17.6925 26.1267C17.7861 25.8296 17.8797 25.5325 17.9733 25.2354C18.0733 25.3882 18.1079 25.5551 18.1365 25.7231C18.1605 25.8641 18.1387 26.0272 18.2049 26.144C18.4123 26.5096 18.6625 26.852 18.8715 27.2169C18.9296 27.3183 18.9587 27.5402 18.9041 27.58C18.6926 27.734 18.7606 27.8681 18.8338 28.0562C18.9028 28.2332 18.9258 28.4384 18.9198 28.6297C18.9063 29.0527 18.9954 29.1311 19.4461 29.0271C19.473 28.9095 19.5003 28.7898 19.5319 28.6515C19.7776 28.7806 19.9932 28.9908 20.2074 28.9897C21.2039 28.9842 22.2098 29.1777 23.198 28.8908C23.3211 28.8551 23.4644 28.8859 23.7179 28.8859C23.4777 29.1861 23.3272 29.4068 23.6894 29.5682C23.8896 29.6573 23.996 29.6035 24.0745 29.4132C24.2181 29.4943 24.3359 29.5693 24.4478 29.6723C24.4722 29.8575 24.4823 30.0221 24.5376 30.1706C24.6218 30.3963 24.6876 30.5954 24.408 30.7399C23.7746 31.0671 23.7263 31.743 24.3059 32.1151C24.6723 32.3502 24.6614 32.5231 24.266 32.739C24.0567 32.8533 23.8467 32.9665 23.587 33.1072C24.047 33.3543 24.2422 34.2215 24.9986 33.4731C24.7611 33.8478 25.0214 34.3955 24.4272 34.5316C24.7423 35.0145 24.701 35.0854 24.1763 35.3605C24.0375 35.4333 23.9824 35.6585 23.8697 35.831C23.7558 35.8897 23.6611 35.9311 23.5364 35.9598C23.3255 35.9342 23.1433 35.9046 22.9643 35.9172C22.899 35.9218 22.841 36.0265 22.7797 36.0855C22.836 36.14 22.8887 36.1989 22.9497 36.2478C22.9986 36.2871 23.0576 36.3143 23.1122 36.3469ZM22.4708 29.5924C22.4521 29.5143 22.4334 29.4361 22.4147 29.358C22.3504 29.3896 22.2862 29.4212 22.2219 29.4527C22.2892 29.5064 22.3566 29.56 22.4708 29.5924ZM23.2253 29.8953C23.2343 29.8636 23.2432 29.8318 23.2522 29.8001C23.2197 29.8019 23.1872 29.8037 23.1546 29.8056C23.1677 29.8396 23.1807 29.8735 23.2253 29.8953ZM23.62 30.2832C23.6355 30.2805 23.651 30.2779 23.6664 30.2752C23.6512 30.2716 23.636 30.268 23.62 30.2832Z" fill="#B49275"/>
<path d="M11.5784 16.5948C11.4643 16.6483 11.3501 16.7018 11.1927 16.7656C11.1297 16.7872 11.1116 16.8005 11.0949 16.8157C10.6396 17.0098 10.1691 17.0823 9.66745 17.0845C8.98974 17.0875 8.31261 17.1684 7.63463 17.2054C7.51968 17.2117 7.37834 17.1986 7.28892 17.1383C6.66925 16.7204 6.05846 16.2897 5.44973 15.8566C5.37719 15.805 5.30962 15.7218 5.28143 15.6396C4.99025 14.7906 4.39976 14.1358 3.81197 13.4824C3.55003 13.1913 3.51503 12.8795 3.63986 12.5385C3.72482 12.3063 3.81622 12.0714 3.94359 11.86C4.35377 11.1792 4.50897 10.4394 4.54817 9.66166C4.57875 9.05511 4.72973 8.50894 5.22094 8.0568C5.57396 7.73187 5.81798 7.29408 6.15849 6.90063C6.291 6.93064 6.37591 6.99814 6.46025 6.99748C6.97017 6.99346 7.47989 6.96803 7.98983 6.96197C8.23625 6.95903 8.53953 7.06278 8.45337 7.31494C8.25685 7.89009 8.67255 7.76724 8.95455 7.80617C9.06926 7.82201 9.18998 7.79635 9.333 7.78813C9.36583 7.92486 9.36887 8.06416 9.43225 8.16856C9.50688 8.29151 9.63379 8.38422 9.73803 8.49004C9.81372 8.38309 9.87587 8.26295 9.96841 8.17242C10.0938 8.0498 10.2424 7.94989 10.3778 7.86928C10.3177 8.08515 10.261 8.27198 10.1902 8.48277C9.77553 9.43804 9.37482 10.3693 8.95909 11.3166C8.92715 11.3722 8.91023 11.4119 8.87399 11.4674C8.82072 11.5552 8.78678 11.6272 8.7488 11.7163C8.74476 11.7333 8.7407 11.7681 8.72487 11.7861C8.68933 11.8468 8.66964 11.8896 8.63134 11.9526C8.00893 13.2978 7.40511 14.6228 6.75938 16.0397C7.63784 16.0689 8.4128 16.103 9.18802 16.11C9.28484 16.1109 9.42728 15.988 9.47234 15.8894C9.61277 15.5818 9.70688 15.2544 9.83674 14.9418C10.0573 14.4108 10.2914 13.8851 10.5562 13.3562C10.7863 13.3576 10.98 13.3603 11.1839 13.389C11.4807 13.9575 11.9181 14.4613 11.5187 15.1445C11.4371 15.2842 11.5431 15.5252 11.5525 15.7199C11.5606 15.8874 11.5542 16.0556 11.5542 16.2805C11.3967 16.22 11.3508 16.194 11.3018 16.1854C11.1998 16.1673 11.0143 16.1299 11.0066 16.1506C10.9611 16.2747 10.9564 16.413 10.938 16.5466C11.0422 16.5441 11.1471 16.5334 11.2505 16.5414C11.3606 16.55 11.4692 16.5763 11.5784 16.5948ZM8.04097 7.47756C8.0544 7.43139 8.06782 7.38521 8.08125 7.33903C8.03443 7.33482 7.98761 7.33061 7.94079 7.3264C7.96018 7.3749 7.97957 7.4234 8.04097 7.47756ZM10.3782 16.2147C10.3801 16.1836 10.382 16.1526 10.384 16.1216C10.3717 16.1211 10.3594 16.1206 10.3471 16.1202C10.3474 16.1513 10.3478 16.1824 10.3782 16.2147ZM9.09264 8.29379C9.07717 8.29644 9.06169 8.29909 9.04622 8.30174C9.06144 8.30537 9.07667 8.309 9.09264 8.29379ZM10.2766 16.6565C10.2793 16.6716 10.282 16.6868 10.2847 16.7019C10.2885 16.687 10.2922 16.6721 10.2766 16.6565Z" fill="#B49275"/>
<path d="M24.0488 29.4072C23.9961 29.6036 23.8897 29.6574 23.6895 29.5683C23.3273 29.407 23.4778 29.1862 23.718 28.8861C23.4645 28.8861 23.3212 28.8552 23.1981 28.8909C22.2099 29.1778 21.2039 28.9843 20.2075 28.9898C19.9932 28.991 19.7777 28.7807 19.532 28.6517C19.5004 28.79 19.4731 28.9096 19.4462 29.0272C18.9955 29.1312 18.9064 29.0528 18.9198 28.6298C18.9259 28.4385 18.9028 28.2333 18.8339 28.0563C18.7606 27.8682 18.6926 27.7341 18.9041 27.5801C18.9587 27.5403 18.9297 27.3184 18.8716 27.217C18.6626 26.8521 18.4123 26.5097 18.205 26.1441C18.1388 26.0273 18.1606 25.8642 18.1365 25.7232C18.1079 25.5552 18.0734 25.3883 17.9734 25.2355C17.8798 25.5326 17.7862 25.8297 17.6926 26.1268C17.6364 26.1149 17.5802 26.1031 17.5241 26.0912C17.5241 25.8918 17.4414 25.6295 17.5405 25.5056C17.7799 25.206 17.7428 24.8869 17.7276 24.5679C17.7024 24.0381 17.9572 23.6785 18.4419 23.3621C18.1818 23.1891 17.9116 23.0547 17.7024 22.8583C17.4696 22.6397 17.2924 22.3647 17.0536 22.0678C17.2308 22.0114 17.3596 22.0007 17.4448 21.9355C17.5439 21.8597 17.6048 21.7363 17.6823 21.6336C17.5499 21.596 17.4021 21.5042 17.2891 21.5348C17.1511 21.5722 17.0423 21.7124 16.8823 21.8386C16.6851 21.5868 16.4841 21.3076 16.2586 21.0487C16.0347 20.7918 15.7822 20.5589 15.5511 20.3076C15.4959 20.2474 15.4242 20.1308 15.4485 20.0834C15.6011 19.7855 15.7468 19.4746 15.9585 19.2181C16.12 19.0225 16.21 18.872 16.105 18.6231C16.0167 18.4141 15.9782 18.1851 15.8838 17.9312C15.7759 17.8607 15.7018 17.8239 15.6277 17.7871C15.6052 17.7711 15.5827 17.7552 15.5516 17.6926C15.4901 17.5349 15.4372 17.4238 15.3711 17.2922C15.4402 16.7328 15.9379 17.0192 16.2227 16.8844C16.584 16.7136 16.3606 17.252 16.6833 17.3439C16.7654 16.9562 16.8443 16.584 16.9608 16.2092C17.4939 16.2324 17.9891 16.2648 18.4848 16.2818C18.9608 16.2981 19.0097 16.2168 18.8551 15.7836C18.6344 15.1651 18.4271 14.5419 18.2147 13.892C18.1877 13.7754 18.1599 13.6875 18.1337 13.5986C18.1351 13.5975 18.1313 13.5997 18.1319 13.5716C18.0805 13.4562 18.0285 13.3691 17.9737 13.2651C17.971 13.2482 17.969 13.214 17.9683 13.1817C17.7884 12.5887 17.6287 12.0208 17.4207 11.4704C17.3331 11.2386 17.1435 11.0436 16.9828 10.8085C16.8973 10.5853 16.8293 10.3855 16.7615 10.1553C16.7622 10.0436 16.7626 9.96216 16.7933 9.87965C16.9056 9.84185 16.9857 9.80039 17.0699 9.76942C17.214 9.71644 17.3605 9.67002 17.506 9.62085C17.5167 9.78366 17.5887 9.97437 17.5268 10.1042C17.3058 10.568 17.3589 10.8252 17.7989 11.0506C17.5919 11.6168 17.9543 12.0632 18.1635 12.5347C18.339 12.9305 18.5947 13.2918 18.7873 13.6815C18.825 13.7577 18.746 13.8974 18.7037 14.0011C18.5985 14.2591 18.5846 14.4722 18.8778 14.6407C18.9843 14.702 19.0479 14.8566 19.1001 14.981C19.1955 15.2079 19.2636 15.4455 19.3509 15.6759C19.4336 15.8944 19.5895 15.9006 19.7699 15.7929C19.9965 15.6576 20.2205 15.5181 20.3895 15.4147C20.4241 15.2416 20.4502 15.1108 20.4764 14.9801C20.5677 15.0841 20.6609 15.1865 20.7494 15.2927C20.7827 15.3327 20.8051 15.3815 20.8091 15.4432C20.2578 15.6591 19.8454 16.0007 19.4904 16.4558C18.2779 17.5572 18.3363 19.8555 19.5927 20.9762C19.6804 21.065 19.7567 21.1312 19.8452 21.2162C19.9037 21.2718 19.95 21.3088 20.012 21.3677C20.2512 21.5486 20.4543 21.7547 20.7022 21.8572C21.3002 22.1043 21.9192 22.303 22.494 22.5229C22.0977 22.6053 21.7372 22.686 21.3824 22.7396C21.5025 22.4524 21.3477 22.3055 21.1353 22.2269C20.8411 22.1182 20.5324 21.9344 20.1112 22.287C20.5841 22.4663 20.9804 22.6166 21.3753 22.7966C21.307 22.9116 21.2475 23.004 21.1707 23.0795C21.117 23.1322 21.0183 23.1472 20.977 23.2046C20.8625 23.364 21.1173 24.051 21.3191 24.101C21.5274 24.1526 21.6128 24.2372 21.5822 24.4583C21.5685 24.557 21.6528 24.6688 21.6933 24.7744C21.7287 24.8669 21.8201 24.9819 21.7916 25.0474C21.6376 25.4006 21.8737 25.4292 22.1193 25.4498C22.2798 25.4632 22.449 25.4303 22.6012 25.4684C22.7067 25.4948 22.8789 25.6218 22.8689 25.6781C22.775 26.2082 23.1614 26.1367 23.4731 26.1656C23.6892 26.1856 23.9051 26.2073 24.084 26.2327C23.5331 26.2341 23.0194 26.231 22.4809 26.2184C22.178 26.0525 21.8841 25.9177 21.6249 25.7358C20.9965 25.2949 20.7385 24.6376 20.5638 23.9335C20.5388 23.833 20.4192 23.6731 20.352 23.6771C19.6816 23.7175 19.011 23.7722 18.346 23.8617C18.238 23.8763 18.0582 24.1026 18.0792 24.1946C18.2335 24.8704 18.3206 25.5921 18.6378 26.1944C19.2244 27.3084 20.1842 28.061 21.4599 28.3784C22.748 28.699 24.0416 28.6926 25.3486 28.4784C25.2176 28.6707 25.0786 28.8413 24.9125 29.0119C24.8495 29.0119 24.8135 29.0119 24.7702 28.9864C24.6712 28.9221 24.5334 28.8257 24.4954 28.8545C24.304 28.9998 23.9653 29.0488 24.0488 29.4072ZM20.9773 28.4167C20.7781 28.3873 20.579 28.3578 20.3612 28.3257C20.4309 28.8004 20.695 28.8649 21.2557 28.5853C21.1703 28.5294 21.0999 28.4832 20.9773 28.4167Z" fill="#B49275"/>
<path d="M16.9234 16.2118C16.8445 16.584 16.7657 16.9563 16.6836 17.344C16.3609 17.2521 16.5843 16.7137 16.223 16.8845C15.9382 17.0192 15.4405 16.7328 15.3642 17.3133C15.3264 17.3921 15.2826 17.4293 15.2387 17.4666C15.199 17.4639 15.1593 17.4613 15.0875 17.4231C14.9976 17.1163 14.9398 16.845 14.8623 16.4816C14.7181 16.6928 14.5803 16.8412 14.5131 17.0155C14.479 17.1039 14.5459 17.2593 14.6163 17.3469C14.6738 17.4184 14.8041 17.4342 14.9021 17.4747C14.434 17.6092 14.0109 17.5387 13.6776 17.1761C13.2192 16.6775 12.6549 16.4643 11.9264 16.5125C11.8311 16.526 11.7863 16.5483 11.7414 16.5707C11.7057 16.579 11.67 16.5872 11.6066 16.5952C11.4697 16.5764 11.3611 16.5501 11.251 16.5415C11.1476 16.5335 11.0427 16.5442 10.9385 16.5467C10.9569 16.4131 10.9616 16.2748 11.0071 16.1507C11.0148 16.13 11.2003 16.1674 11.3023 16.1855C11.3513 16.1941 11.3972 16.2201 11.5547 16.2806C11.5547 16.0557 11.5611 15.8875 11.553 15.72C11.5436 15.5253 11.4376 15.2843 11.5192 15.1446C11.9186 14.4614 11.4812 13.9576 11.2223 13.3867C11.7379 13.3549 12.2258 13.3516 12.7514 13.3516C13.5411 13.374 14.293 13.3955 15.045 13.4113C15.3167 13.417 15.4417 13.5589 15.5227 13.8014C15.731 14.425 15.9993 15.0317 16.1715 15.6639C16.2863 16.0854 16.4874 16.2704 16.9234 16.2118ZM14.9241 15.4187C15.11 15.3436 15.3026 15.2796 15.4746 15.1813C15.5004 15.1665 15.4298 14.991 15.3873 14.8257C15.1927 15.0577 15.0614 15.2143 14.9241 15.4187ZM16.4169 16.35C16.3654 16.368 16.3139 16.3859 16.2624 16.4038C16.2921 16.4357 16.3219 16.4676 16.3516 16.4995C16.3831 16.4597 16.4145 16.4199 16.4169 16.35ZM15.5163 16.4062C15.5105 16.3419 15.5047 16.2776 15.4989 16.2133C15.4657 16.2212 15.4325 16.229 15.3993 16.2369C15.428 16.3024 15.4567 16.3679 15.5163 16.4062ZM15.7022 15.5499C15.7049 15.565 15.7076 15.5801 15.7104 15.5953C15.7141 15.5804 15.7178 15.5655 15.7022 15.5499Z" fill="#B49275"/>
<path d="M10.3814 7.8403C10.2428 7.94995 10.0941 8.04986 9.96875 8.17248C9.87621 8.26301 9.81406 8.38315 9.73837 8.4901C9.63413 8.38428 9.50722 8.29157 9.43259 8.16862C9.36921 8.06422 9.36617 7.92492 9.33334 7.78819C9.19032 7.79641 9.0696 7.82207 8.95489 7.80623C8.67289 7.7673 8.25719 7.89015 8.45371 7.315C8.53987 7.06284 8.23659 6.95909 7.99017 6.96203C7.48023 6.9681 6.97051 6.99352 6.46059 6.99754C6.37625 6.9982 6.29134 6.9307 6.18164 6.88558C6.45978 6.62609 6.74465 6.34926 7.0717 6.13331C7.35917 5.94349 7.6969 5.82747 8.00696 5.66867C8.39858 5.46811 8.60268 5.15435 8.68834 4.72071C8.73092 4.50516 8.90379 4.27266 9.08632 4.13378C9.43893 3.86551 9.8402 3.65818 10.2464 3.40115C10.2716 3.37671 10.2791 3.36416 10.2791 3.36416C10.2916 3.33175 10.304 3.29933 10.3416 3.25757C10.5482 3.75998 10.9521 3.7004 11.3896 3.67339C12.2273 3.62167 13.0685 3.62178 13.9084 3.61049C13.9847 3.60946 14.1286 3.68166 14.1285 3.71968C14.128 4.04879 14.3257 4.15455 14.6151 4.21377C14.6921 4.22953 14.7423 4.37022 14.7896 4.47018C14.7295 4.47032 14.6846 4.45383 14.6034 4.43415C13.8532 4.42757 13.1391 4.43329 12.4256 4.41664C12.1087 4.40925 11.9516 4.53366 11.8275 4.82125C11.4155 5.77627 10.9681 6.71677 10.5107 7.67203C10.4478 7.73126 10.4086 7.78129 10.374 7.83165C10.3785 7.83196 10.3814 7.8403 10.3814 7.8403ZM13.8071 3.89256C13.8426 3.97866 13.878 4.06476 13.9134 4.15087C13.957 4.12565 14.0007 4.10044 14.0444 4.07522C13.9752 4.00432 13.9059 3.93341 13.8071 3.89256Z" fill="#B49275"/>
<path d="M24.7773 29.0119C24.8133 29.0119 24.8493 29.0119 24.9482 29.0119C25.4366 29.0489 25.8616 29.0972 26.288 29.1161C26.4157 29.1218 26.5471 29.0451 26.6768 29.0062C26.6353 28.8921 26.5984 28.776 26.5504 28.6645C26.5265 28.6091 26.4822 28.5622 26.3928 28.4326C26.825 28.5025 27.1777 28.5596 27.5242 28.6437C27.4517 28.8761 27.3853 29.0814 27.3189 29.2868C27.0261 29.6084 26.9472 29.9861 27.2166 30.3406C27.4259 30.616 27.4001 30.8655 27.2392 31.1425C26.8709 31.7763 26.8746 31.7783 27.5302 32.0922C27.4706 32.1411 27.4181 32.217 27.35 32.2343C26.9337 32.3398 26.7476 32.6374 26.6322 33.0073C26.3594 33.8812 25.8353 34.5975 25.1607 35.2169C25.0581 35.3111 24.9481 35.3976 24.7835 35.4943C24.4466 35.6052 24.1677 35.7095 23.8888 35.8138C23.9823 35.6586 24.0373 35.4333 24.1762 35.3605C24.7009 35.0854 24.7422 35.0146 24.4271 34.5316C25.0213 34.3955 24.761 33.8478 24.9985 33.4731C24.2421 34.2216 24.0469 33.3543 23.5869 33.1073C23.8466 32.9665 24.0566 32.8533 24.2659 32.739C24.6613 32.5232 24.6721 32.3502 24.3058 32.1151C23.7262 31.7431 23.7745 31.0671 24.4078 30.7399C24.6875 30.5954 24.6216 30.3963 24.5375 30.1706C24.4821 30.0222 24.4721 29.8576 24.47 29.655C24.5912 29.4104 24.6843 29.2112 24.7773 29.0119Z" fill="#B49275"/>
<path d="M27.5573 32.0866C26.875 31.7784 26.8713 31.7764 27.2396 31.1426C27.4005 30.8656 27.4263 30.6161 27.217 30.3407C26.9476 29.9862 27.0265 29.6085 27.3194 29.2869C27.3857 29.0816 27.4521 28.8762 27.5247 28.6241C27.5309 28.5773 27.531 28.5378 27.562 28.537C27.8725 28.4173 28.1731 28.3289 28.4216 28.1652C28.5259 28.0964 28.5402 27.8696 28.5516 27.7116C28.5549 27.6662 28.401 27.5612 28.3264 27.5673C27.9222 27.6008 27.9573 27.3706 28.0314 27.1029C28.0651 27.0741 28.0823 27.0556 28.1313 27.0355C28.3462 27.0234 28.5534 27.0713 28.5729 26.7845C28.5869 26.5804 28.6447 26.3792 28.6907 26.1357C28.7004 26.1401 28.6419 26.1136 28.5844 26.0549C28.6926 25.5847 28.9195 25.1364 28.881 24.711C28.8121 23.9503 28.5834 23.2034 28.4214 22.4507C28.4386 22.2504 28.2267 22.0035 28.5604 21.8183C28.6285 21.9748 28.6816 22.0969 28.7521 22.2591C28.9855 22.0552 28.8566 21.8842 28.7874 21.697C28.7142 21.4986 28.4258 21.3371 28.6565 21.0511C28.8629 20.761 28.996 20.9162 29.0394 21.1165C29.1296 21.5322 29.2777 21.9513 28.986 22.3692C28.8334 22.5879 28.9202 22.6495 29.4531 22.6762C29.1383 23.1919 29.5337 23.5162 29.7673 23.895C29.9214 24.1448 30.0454 24.3917 29.733 24.66C29.5702 24.7998 29.4879 24.9979 29.6139 25.2874C29.7407 25.5788 29.6608 25.9525 29.695 26.2878C29.706 26.3959 29.7913 26.4969 29.8426 26.6011C29.9024 26.4895 30.0076 26.3799 30.013 26.2659C30.0257 25.9953 29.991 25.7225 29.97 25.3534C30.5551 25.8466 30.6352 26.6063 30.2665 27.2004C30.2411 27.2072 30.215 27.2206 30.19 27.2189C29.9666 27.2038 29.6892 27.0986 29.5336 27.1906C29.3272 27.3126 29.424 28.0196 29.6243 28.257C29.522 28.312 29.4086 28.3454 29.2481 28.3643C29.0997 28.2605 28.9985 28.1712 28.8972 28.082C28.8568 28.0769 28.8163 28.0719 28.7758 28.0668C28.8883 28.6041 28.5678 28.7876 28.1835 28.9355C28.1181 28.9607 28.0901 29.0853 28.0512 29.1669C28.0129 29.2473 28.0057 29.3784 27.9453 29.4066C27.4188 29.6526 27.6621 30.0589 27.7078 30.4233C27.7432 30.7059 27.7768 30.989 27.8273 31.2692C27.8445 31.3644 27.9109 31.4511 27.9548 31.5418C27.8312 31.7215 27.7076 31.9012 27.5573 32.0866ZM29.1414 26.1049C29.1833 26.0638 29.2253 26.0227 29.2672 25.9816C29.204 25.9535 29.1407 25.9255 29.0775 25.8975C29.0847 25.9598 29.0919 26.0221 29.1414 26.1049ZM28.9666 26.58C28.9407 26.5491 28.9148 26.5182 28.8889 26.4873C28.8756 26.5184 28.8622 26.5496 28.8489 26.5808C28.8839 26.5921 28.9188 26.6034 28.9666 26.58Z" fill="#B49275"/>
<path d="M27.9716 31.5099C27.9102 31.4512 27.8438 31.3645 27.8267 31.2692C27.7761 30.9891 27.7426 30.7059 27.7071 30.4234C27.6614 30.0589 27.4182 29.6526 27.9447 29.4066C28.0051 29.3784 28.0122 29.2474 28.0505 29.1669C28.0894 29.0853 28.1175 28.9607 28.1829 28.9356C28.5672 28.7876 28.8877 28.6042 28.7752 28.0669C28.8157 28.0719 28.8561 28.077 28.8966 28.082C28.9978 28.1713 29.0991 28.2605 29.218 28.3698C28.7871 28.8581 28.2979 29.2975 27.9124 29.811C27.7824 29.9843 27.9151 30.3456 27.9306 30.6771C27.9496 30.7897 27.9656 30.8462 27.9817 30.9027C27.9842 31.0944 27.9866 31.2862 27.9716 31.5099Z" fill="#B49275"/>
<path d="M14.9292 17.4721C14.8041 17.4341 14.6738 17.4183 14.6163 17.3467C14.5459 17.2592 14.479 17.1038 14.5131 17.0154C14.5803 16.8411 14.7181 16.6927 14.8623 16.4814C14.9398 16.8448 14.9976 17.1161 15.0585 17.416C15.0264 17.4529 14.9913 17.4613 14.9292 17.4721Z" fill="#B49275"/>
<path d="M23.8697 35.8311C24.1678 35.7096 24.4467 35.6053 24.756 35.4993C24.3166 35.7572 23.8468 36.0168 23.3574 36.2516C23.4141 36.1421 23.4903 36.0574 23.5664 35.9727C23.6611 35.9312 23.7558 35.8898 23.8697 35.8311Z" fill="#B49275"/>
<path d="M23.536 35.9599C23.4898 36.0573 23.4137 36.142 23.3277 36.2487C23.268 36.2964 23.2182 36.3221 23.1401 36.3474C23.0572 36.3144 22.9982 36.2872 22.9492 36.2479C22.8882 36.199 22.8356 36.1401 22.7793 36.0856C22.8406 36.0266 22.8985 35.9219 22.9639 35.9173C23.1429 35.9047 23.325 35.9343 23.536 35.9599Z" fill="#B49275"/>
<path d="M15.6299 17.8201C15.7018 17.8238 15.7759 17.8606 15.8603 17.9209C15.8179 18.0175 15.7651 18.0906 15.6899 18.1722C15.6557 18.0715 15.6439 17.9623 15.6299 17.8201Z" fill="#B49275"/>
<path d="M17.4718 4.34001C17.1917 4.45183 17.2742 4.22564 17.2461 4.06372C17.3172 4.12901 17.3883 4.22319 17.4718 4.34001Z" fill="#B49275"/>
<path d="M15.2529 17.486C15.2819 17.4293 15.3258 17.392 15.3768 17.3337C15.4369 17.4239 15.4898 17.535 15.5441 17.6731C15.4529 17.6352 15.3604 17.5704 15.2529 17.486Z" fill="#B49275"/>
<path d="M11.7646 16.5764C11.7863 16.5483 11.8311 16.5259 11.8904 16.5139C11.8658 16.5436 11.8269 16.5629 11.7646 16.5764Z" fill="#B49275"/>
<path d="M27.9864 30.8801C27.9654 30.846 27.9494 30.7895 27.9326 30.7109C27.9517 30.7451 27.9715 30.8014 27.9864 30.8801Z" fill="#B49275"/>
<path d="M22.8604 36.4372C22.8957 36.4152 22.9572 36.3907 23.0442 36.365C23.0086 36.3874 22.9475 36.411 22.8604 36.4372Z" fill="#B49275"/>
<path d="M29.8297 28.242C29.8204 28.2359 29.855 28.2255 29.8637 28.2231C29.8667 28.2361 29.8556 28.2453 29.8297 28.242Z" fill="#B49275"/>
<path d="M11.1145 16.8181C11.1118 16.8004 11.13 16.7872 11.1648 16.7683C11.1729 16.7868 11.1575 16.8067 11.1145 16.8181Z" fill="#B49275"/>
<path d="M10.27 3.35895C10.279 3.36408 10.2713 3.37666 10.2683 3.37867C10.2652 3.38067 10.248 3.36942 10.248 3.36942C10.248 3.36942 10.2611 3.35381 10.27 3.35895Z" fill="#B49275"/>
<path d="M10.4334 3.10768C10.4447 3.1071 10.4279 3.12994 10.4246 3.13605C10.4213 3.14217 10.4072 3.12492 10.4072 3.12492C10.4072 3.12492 10.422 3.10825 10.4334 3.10768Z" fill="#B49275"/>
<path d="M20.8321 15.4263C20.8047 15.3815 20.7823 15.3328 20.749 15.2928C20.6605 15.1866 20.5673 15.0841 20.4759 14.9802C20.4498 15.1109 20.4237 15.2416 20.3891 15.4148C20.2201 15.5181 19.9961 15.6577 19.7695 15.7929C19.589 15.9006 19.4332 15.8944 19.3504 15.6759C19.2632 15.4456 19.1951 15.208 19.0997 14.9811C19.0475 14.8567 18.9839 14.7021 18.8773 14.6408C18.5842 14.4722 18.5981 14.2592 18.7033 14.0012C18.7456 13.8974 18.8246 13.7577 18.7869 13.6815C18.5943 13.2919 18.3386 12.9305 18.163 12.5347C17.9539 12.0632 17.5915 11.6168 17.7984 11.0507C17.3585 10.8253 17.3054 10.5681 17.5264 10.1043C17.5883 9.97442 17.5162 9.78371 17.5056 9.6209C17.3601 9.67007 17.2135 9.71649 17.0695 9.76947C16.9853 9.80044 16.9051 9.8419 16.7925 9.85353C16.7615 9.79349 16.7612 9.75856 16.7819 9.70791C16.9424 9.26701 16.7447 8.79007 16.3543 8.58834C16.2676 8.47521 16.1838 8.38998 16.086 8.28684C16.0583 8.22639 16.0444 8.18386 16.0454 8.11866C16.0069 7.83031 16.0016 7.54374 15.8916 7.3027C15.4783 6.39699 15.0987 5.48289 14.8975 4.50659C15.2895 4.70531 15.6671 4.90715 15.6356 5.43702C15.6297 5.53513 15.7086 5.67296 15.7927 5.73507C16.12 5.97658 16.4888 6.16886 16.7946 6.43211C16.9681 6.58149 17.0493 6.83304 17.1874 7.06417C17.0602 7.13225 16.9477 7.15534 16.9128 7.219C16.8435 7.34553 16.7881 7.49459 16.7891 7.63392C16.7894 7.67949 16.9799 7.75401 17.0876 7.76204C17.2839 7.77667 17.4832 7.75151 17.731 7.7408C17.8965 7.86471 17.7044 8.49263 18.2782 8.17813C18.3956 8.32587 18.5021 8.45982 18.6173 8.60474C18.8869 8.39324 18.52 7.84041 19.107 7.87867C19.0573 8.08371 18.9888 8.26224 18.9753 8.44465C18.9502 8.78487 18.9207 9.12532 19.357 9.29981C19.4744 9.34675 19.5155 9.57566 19.6301 9.79469C19.8508 9.6054 20.0623 9.42398 20.3846 9.14758C20.3564 9.40074 20.3386 9.56135 20.3181 9.74544C20.4156 9.73293 20.5285 9.71845 20.7885 9.6851C20.6689 9.93758 20.5854 10.1137 20.5019 10.2899C20.4582 10.2863 20.4144 10.2828 20.3706 10.2793C20.5929 10.6135 20.8247 10.9422 21.0298 11.2862C21.0753 11.3624 21.0572 11.5076 21.0126 11.5934C20.9627 11.6893 20.8494 11.7539 20.7403 11.8534C20.8746 11.9767 20.9863 12.0791 21.1257 12.207C20.9889 12.2915 20.8772 12.3604 20.6844 12.4795C21.3686 12.5239 21.3703 12.9518 21.3439 13.426C21.4672 13.3678 21.5479 13.3331 21.6253 13.2924C21.8038 13.1987 21.9354 13.1734 22.0385 13.4109C22.0862 13.5208 22.2575 13.5795 22.4469 13.714C22.4773 13.9506 22.8763 14.2319 23.249 14.0903C23.6573 13.9351 23.8159 14.1069 23.8851 14.4338C24.0246 15.0932 24.9173 15.1614 25.247 15.0332C25.7066 15.2287 26.1149 15.3239 26.417 15.5528C26.731 15.7907 26.9424 16.1579 27.1745 16.4891C26.9181 16.3126 26.7027 16.0916 26.4506 15.9227C25.5654 15.3294 24.5547 15.153 23.5046 15.0952C22.5896 15.0449 21.7084 15.205 20.8321 15.4263ZM21.7109 14.3501C21.8062 14.3121 21.9014 14.2742 21.9966 14.2363C21.9598 14.1576 21.943 14.0494 21.8804 14.009C21.8231 13.972 21.7161 14.0083 21.6311 14.0123C21.6418 14.1147 21.6525 14.2172 21.7109 14.3501ZM23.1021 14.5051C23.1359 14.755 23.2917 14.6812 23.413 14.5975C23.4663 14.5607 23.4669 14.451 23.4914 14.3744C23.3667 14.4004 23.2421 14.4263 23.1021 14.5051ZM20.8764 13.335C20.8996 13.2128 20.9228 13.0907 20.9459 12.9685C20.8819 12.9696 20.8179 12.9707 20.7539 12.9718C20.7805 13.1001 20.8071 13.2284 20.8764 13.335Z" fill="#B49275"/>
<path d="M28.0971 27.0356C28.0816 27.0556 28.0644 27.074 28.0027 27.1088C27.6538 27.2297 27.5019 27.3487 27.819 27.6405C27.996 27.8034 28.1327 28.0265 27.7568 28.1898C27.6496 28.2364 27.6041 28.418 27.5303 28.5377C27.5303 28.5377 27.5302 28.5772 27.5301 28.5969C27.1774 28.5596 26.8247 28.5026 26.3926 28.4327C26.482 28.5622 26.5263 28.6092 26.5501 28.6646C26.5981 28.776 26.635 28.8921 26.6765 29.0063C26.5468 29.0452 26.4154 29.1218 26.2878 29.1162C25.8614 29.0973 25.4363 29.049 24.9749 29.0119C25.0781 28.8412 25.2171 28.6706 25.3712 28.4631C25.5385 28.3603 25.6907 28.2944 25.873 28.2259C26.2071 28.0871 26.5418 27.9933 26.81 27.8078C28.4183 26.696 29.0048 24.4198 28.1256 22.684C27.6005 21.6474 26.6952 21.018 25.6001 20.6577C24.5173 20.3014 23.4033 20.0325 22.3305 19.6515C21.8964 19.4972 21.5351 19.1474 21.1341 18.8567C21.0996 18.6621 21.0718 18.4973 21.0518 18.3051C21.2422 18.045 21.3897 17.7709 21.6148 17.5878C22.117 17.179 22.7438 17.2213 23.3512 17.2281C24.5115 17.2411 25.0866 17.6491 25.4159 18.7248C25.4914 18.9715 25.6196 19.0656 25.8747 19.0603C26.3994 19.0496 26.9245 19.0557 27.4494 19.0549C27.3189 19.2241 27.1884 19.3933 27.0403 19.5852C27.3108 19.9448 27.1594 20.3598 27.0427 20.7818C27.0122 20.8918 27.0187 21.0686 27.0884 21.1379C27.3577 21.4057 27.6708 21.6312 27.9449 21.8949C28.1078 22.0517 28.2285 22.2503 28.3945 22.4403C28.5827 23.2033 28.8114 23.9502 28.8803 24.7109C28.9188 25.1363 28.6919 25.5846 28.5584 26.0656C28.3872 26.4177 28.2421 26.7266 28.0971 27.0356Z" fill="#B49275"/>
<path d="M27.4854 19.0524C26.9251 19.0558 26.4 19.0496 25.8753 19.0604C25.6202 19.0657 25.492 18.9716 25.4165 18.7249C25.0872 17.6491 24.5121 17.2412 23.3517 17.2282C22.7444 17.2214 22.1176 17.1791 21.6154 17.5878C21.3903 17.771 21.2428 18.0451 21.0379 18.2808C21.0873 18.0475 21.086 17.7259 21.2473 17.5947C21.5099 17.3811 21.8835 17.3011 22.2001 17.145C22.3115 17.0901 22.3929 16.9771 22.4879 16.8906C22.3826 16.8076 22.288 16.7011 22.1686 16.6487C22.0707 16.6058 21.9431 16.6273 21.753 16.6156C22.4756 16.0533 22.4756 16.0533 22.1792 15.2821C22.0245 15.3366 21.8669 15.3879 21.7126 15.4475C21.5019 15.529 21.291 15.6939 21.085 15.6869C20.5509 15.6687 20.2476 16.0237 19.876 16.2818C19.77 16.3554 19.6353 16.3896 19.5137 16.4419C19.8455 16.0007 20.2579 15.6592 20.8092 15.4432C21.709 15.205 22.5901 15.0448 23.5051 15.0952C24.5552 15.153 25.566 15.3294 26.4512 15.9227C26.7032 16.0916 26.9187 16.3126 27.1765 16.5178C27.202 16.526 27.2046 16.5251 27.2154 16.5397C27.243 16.5735 27.2629 16.589 27.2857 16.6009C27.2857 16.6009 27.2857 16.6025 27.2923 16.6294C27.4265 16.8514 27.5541 17.0464 27.6817 17.2414C27.8048 17.6286 27.9518 18.0104 28.0452 18.4042C28.182 18.9804 28.1264 19.0319 27.4854 19.0524Z" fill="#B49275"/>
<path d="M14.878 4.50627C15.0992 5.48279 15.4787 6.39689 15.892 7.3026C16.002 7.54364 16.0073 7.83021 16.0322 8.09424C15.549 6.87415 15.0943 5.6557 14.6396 4.43726C14.6845 4.45374 14.7294 4.47023 14.7962 4.49613C14.8182 4.50554 14.8581 4.50605 14.878 4.50627Z" fill="#B49275"/>
<path d="M26.4375 12.3984C26.4969 12.1901 26.5774 11.9961 26.6578 11.802C26.7121 11.814 26.7664 11.826 26.8208 11.838C26.81 12.0506 26.7992 12.2632 26.7856 12.5319C26.6429 12.4798 26.5507 12.4462 26.4375 12.3984Z" fill="#B49275"/>
<path d="M25.3362 11.6614C25.3672 11.7654 25.3729 11.8665 25.3787 11.9675C25.3172 11.9661 25.2558 11.9648 25.1943 11.9634C25.2332 11.8617 25.272 11.7601 25.3362 11.6614Z" fill="#B49275"/>
<path d="M27.6977 17.2196C27.5542 17.0463 27.4266 16.8513 27.293 16.6299C27.5372 16.7277 27.7716 16.8628 27.6977 17.2196Z" fill="#B49275"/>
<path d="M28.5337 18.2026C28.4996 18.2436 28.4604 18.2654 28.4213 18.2872C28.412 18.2524 28.4028 18.2176 28.3936 18.1829C28.4386 18.1831 28.4836 18.1833 28.5337 18.2026Z" fill="#B49275"/>
<path d="M21.9176 8.26221C21.8922 8.23958 21.8817 8.21319 21.8711 8.18679C21.8833 8.18363 21.9056 8.17668 21.9061 8.17787C21.9163 8.20419 21.9242 8.2314 21.9176 8.26221Z" fill="#B49275"/>
<path d="M24.6064 9.64313C24.6389 9.62812 24.6708 9.62778 24.7027 9.62744C24.7022 9.63945 24.7017 9.65146 24.7013 9.66347C24.6695 9.66158 24.6377 9.65969 24.6064 9.64313Z" fill="#B49275"/>
<path d="M21.5293 7.52583C21.514 7.4966 21.5123 7.46852 21.5107 7.44043C21.5218 7.44139 21.5425 7.44181 21.5426 7.44338C21.5442 7.47116 21.5433 7.49908 21.5293 7.52583Z" fill="#B49275"/>
<path d="M22.9004 9.38867C22.9156 9.39562 22.9237 9.40884 22.9317 9.42206C22.9189 9.41302 22.9061 9.40398 22.9004 9.38867Z" fill="#B49275"/>
<path d="M27.2731 16.5866C27.2623 16.5891 27.2425 16.5736 27.2148 16.5389C27.2248 16.5377 27.2438 16.5541 27.2731 16.5866Z" fill="#B49275"/>
<path d="M24.7696 28.9862C24.6838 29.2111 24.5908 29.4104 24.4755 29.627C24.3353 29.5693 24.2176 29.4943 24.074 29.4132C23.9646 29.0487 24.3034 28.9997 24.4948 28.8544C24.5328 28.8255 24.6706 28.922 24.7696 28.9862Z" fill="#B49275"/>
<path d="M22.4471 29.6033C22.3564 29.5602 22.289 29.5066 22.2217 29.4529C22.286 29.4213 22.3502 29.3897 22.4145 29.3582C22.4332 29.4363 22.4519 29.5145 22.4471 29.6033Z" fill="#B49275"/>
<path d="M23.2092 29.9016C23.1803 29.8737 23.1673 29.8398 23.1543 29.8058C23.1868 29.804 23.2193 29.8021 23.2518 29.8003C23.2429 29.832 23.2339 29.8638 23.2092 29.9016Z" fill="#B49275"/>
<path d="M23.6201 30.2738C23.6357 30.268 23.651 30.2716 23.6662 30.2753C23.6507 30.2779 23.6352 30.2806 23.6201 30.2738Z" fill="#B49275"/>
<path d="M15.7495 18.3798C15.7479 18.3804 15.751 18.3792 15.7495 18.3798V18.3798Z" fill="#B49275"/>
<path d="M14.603 4.43407C15.094 5.65572 15.5486 6.87416 16.017 8.11693C16.0445 8.18378 16.0584 8.22631 16.0907 8.31685C16.2681 8.76778 16.4271 9.1707 16.5886 9.5985C16.5975 9.65612 16.6039 9.68886 16.6109 9.75001C16.6614 9.91416 16.7112 10.0499 16.761 10.1856C16.829 10.3855 16.897 10.5853 16.9859 10.8381C17.2249 11.5034 17.4429 12.1157 17.6289 12.727C17.4811 12.6407 17.3576 12.5633 17.2527 12.4667C17.1987 12.4169 17.1838 12.329 17.1412 12.2646C16.9456 11.9687 16.7359 11.6809 16.5566 11.376C16.515 11.3053 16.5366 11.1512 16.5913 11.0832C16.8037 10.8194 16.7024 10.6687 16.4219 10.5948C16.1285 10.5174 16.0997 10.3652 16.2238 10.1275C16.3403 9.90428 16.3645 9.69265 16.1874 9.46721C16.0721 9.32042 15.9986 9.13217 15.9448 8.95158C15.8195 8.53107 15.5498 8.35101 15.2047 8.51266C15.0971 8.56306 15.0311 8.69824 14.9371 8.80484C14.8935 8.74911 14.8603 8.7223 14.8478 8.68824C14.7118 8.31772 14.486 8.20465 14.1233 8.33834C13.7248 8.48517 13.9402 8.72228 14.0315 8.94496C14.0711 9.04147 14.0768 9.15139 14.1175 9.24727C14.2506 9.56066 14.352 9.92827 14.7766 9.73324C14.7323 10.2119 14.6881 10.6906 14.6273 11.1451C14.1452 9.83836 13.6796 8.55592 13.2141 7.27348C13.1778 7.27279 13.1416 7.27211 13.1053 7.27143C12.8159 7.93176 12.5265 8.59209 12.2146 9.24375C12.2085 8.97943 12.159 8.69739 12.2534 8.47295C12.5646 7.73238 12.4685 7.25968 11.7618 6.67198C11.7354 6.92653 11.7134 7.13968 11.6872 7.39297C11.407 7.16654 11.176 7.21089 10.9957 7.43926C10.8672 7.60194 10.7912 7.80384 10.6641 7.96782C10.5276 8.14392 10.3588 8.29615 10.2041 8.4588C10.2609 8.27197 10.3176 8.08514 10.3777 7.86927C10.381 7.84023 10.378 7.83189 10.3987 7.82617C10.4576 7.76789 10.4957 7.71533 10.5339 7.66277C10.9677 6.7167 11.415 5.77619 11.8271 4.82118C11.9512 4.53359 12.1082 4.40918 12.4251 4.41657C13.1387 4.43321 13.8528 4.42749 14.603 4.43407Z" fill="#B49275"/>
<path d="M12.7131 13.3483C12.2253 13.3516 11.7374 13.3548 11.2117 13.3605C10.9801 13.3603 10.7863 13.3577 10.5243 13.3565C10.0532 13.3782 9.81455 13.1832 9.72781 12.7358C9.59203 12.9967 9.42831 13.1813 9.4082 13.3797C9.37641 13.6935 9.14147 13.7809 8.93192 13.8408C8.80541 13.877 8.6256 13.7354 8.55176 13.7062C8.7182 13.5357 8.9182 13.4202 8.9611 13.2637C9.01192 13.0783 8.93576 12.8561 8.89926 12.6524C8.85624 12.4125 8.79673 12.1753 8.74422 11.9089C8.74295 11.8432 8.74184 11.8057 8.74073 11.7682C8.74073 11.7682 8.74479 11.7334 8.77178 11.7105C8.8303 11.6089 8.86182 11.5303 8.89334 11.4516C8.91026 11.4119 8.92718 11.3722 8.98583 11.3082C9.30196 10.9936 9.62752 10.7557 9.62671 10.2783C9.6264 10.1004 9.92198 9.75548 10.0221 9.77549C10.31 9.83306 10.623 9.98744 10.8221 10.1977C11.0768 10.4667 11.2298 10.8273 11.4266 11.1744C11.4504 11.2639 11.4742 11.3274 11.5213 11.4092C11.7507 11.4574 11.9569 11.486 12.1626 11.5176C12.2875 11.5368 12.4269 11.5326 12.5331 11.5878C12.7631 11.7075 12.9639 11.8843 13.1992 11.9899C13.4455 12.1006 13.4531 12.1676 13.2853 12.3825C13.0562 12.6759 12.9004 13.0238 12.7131 13.3483ZM9.9588 12.7184C10.0819 12.7039 10.205 12.6893 10.328 12.6748C10.3042 12.6112 10.2804 12.5477 10.2565 12.4842C10.1514 12.5472 10.0463 12.6102 9.9588 12.7184ZM10.705 10.5947C10.651 10.6646 10.597 10.7345 10.5429 10.8044C10.5753 10.8242 10.6077 10.844 10.6401 10.8638C10.6703 10.8457 10.7208 10.8326 10.7268 10.8087C10.7413 10.7516 10.7349 10.6894 10.705 10.5947ZM12.7717 12.5517C12.7369 12.5407 12.7021 12.5298 12.6673 12.5188C12.6674 12.5533 12.6675 12.5877 12.6676 12.6221C12.7023 12.6107 12.737 12.5992 12.7717 12.5517Z" fill="#B49275"/>
<path d="M8.74474 11.937C8.7971 12.1754 8.8566 12.4125 8.89962 12.6524C8.93613 12.8561 9.01229 13.0784 8.96146 13.2638C8.91856 13.4203 8.71856 13.5357 8.55212 13.7062C8.62597 13.7354 8.80577 13.877 8.93228 13.8409C9.14183 13.781 9.37677 13.6936 9.40857 13.3798C9.42867 13.1813 9.59239 12.9967 9.72817 12.7358C9.81492 13.1832 10.0535 13.3783 10.4883 13.3576C10.2918 13.8852 10.0577 14.4108 9.83712 14.9418C9.70726 15.2545 9.61315 15.5819 9.47272 15.8894C9.42767 15.9881 9.28523 16.1109 9.18841 16.11C8.41319 16.103 7.63823 16.069 6.75977 16.0398C7.4055 14.6228 8.00932 13.2978 8.65537 11.954C8.71332 11.9357 8.72903 11.9364 8.74474 11.937Z" fill="#B49275"/>
<path d="M11.4268 11.1483C11.23 10.8272 11.0769 10.4665 10.8223 10.1976C10.6232 9.98729 10.3101 9.83291 10.0222 9.77535C9.92211 9.75533 9.62653 10.1002 9.62684 10.2782C9.62765 10.7555 9.30209 10.9934 9.00098 11.2921C9.37498 10.3692 9.77569 9.43792 10.1904 8.48265C10.3591 8.29605 10.5279 8.14382 10.6644 7.96772C10.7914 7.80374 10.8675 7.60184 10.9959 7.43916C11.1763 7.21078 11.4073 7.16644 11.6875 7.39287C11.7137 7.13958 11.7357 6.92642 11.762 6.67188C12.4688 7.25957 12.5649 7.73228 12.2536 8.47285C12.1593 8.69729 12.2088 8.97933 12.2084 9.27224C11.9586 9.92244 11.6927 10.5354 11.4268 11.1483Z" fill="#B49275"/>
<path d="M8.0196 7.47475C7.97921 7.42342 7.95982 7.37492 7.94043 7.32642C7.98725 7.33063 8.03407 7.33484 8.08088 7.33905C8.06746 7.38523 8.05404 7.4314 8.0196 7.47475Z" fill="#B49275"/>
<path d="M8.87358 11.4673C8.86139 11.5301 8.82986 11.6088 8.77539 11.6933C8.78638 11.6271 8.82032 11.5551 8.87358 11.4673Z" fill="#B49275"/>
<path d="M10.3627 16.2141C10.3474 16.1824 10.347 16.1512 10.3467 16.1201C10.359 16.1206 10.3713 16.121 10.3836 16.1215C10.3816 16.1525 10.3797 16.1836 10.3627 16.2141Z" fill="#B49275"/>
<path d="M9.09195 8.30311C9.07635 8.3089 9.06113 8.30527 9.0459 8.30164C9.06137 8.29899 9.07685 8.29634 9.09195 8.30311Z" fill="#B49275"/>
<path d="M10.2866 16.657C10.2925 16.6722 10.2888 16.6871 10.2851 16.702C10.2824 16.6869 10.2797 16.6717 10.2866 16.657Z" fill="#B49275"/>
<path d="M8.74396 11.9089C8.72841 11.9364 8.7127 11.9357 8.67335 11.9338C8.6694 11.8897 8.6891 11.8469 8.72464 11.7861C8.74158 11.8057 8.74269 11.8433 8.74396 11.9089Z" fill="#B49275"/>
<path d="M21.1406 18.8865C21.535 19.1473 21.8963 19.4972 22.3304 19.6514C23.4032 20.0324 24.5172 20.3013 25.6 20.6576C26.6951 21.0179 27.6004 21.6473 28.1254 22.6839C29.0047 24.4197 28.4182 26.6959 26.8098 27.8078C26.5416 27.9932 26.207 28.087 25.8379 28.2243C25.1221 28.315 24.4711 28.4018 23.8211 28.4953C23.3697 28.5601 22.9757 28.4238 22.631 28.1573C22.5679 28.1086 22.5381 27.9194 22.583 27.8547C22.7489 27.6156 22.9526 27.4014 23.1647 27.1512C23.0095 27.1582 22.8698 27.1644 22.7406 27.1702C22.5821 27.5704 22.5821 27.5704 22.2559 27.4621C22.6633 27.1052 22.5742 26.6651 22.5051 26.2278C23.0188 26.2309 23.5325 26.234 24.1133 26.2266C24.2844 26.1904 24.3883 26.1636 24.4927 26.1391C25.627 25.8729 26.4285 24.3635 25.3256 23.3999C25.2896 23.3627 25.2662 23.3439 25.2274 23.3248C25.2119 23.3244 25.1815 23.3187 25.1713 23.2935C24.568 23.0286 23.9763 22.7853 23.3793 22.5549C23.3216 22.5326 23.2316 22.5901 23.1311 22.6076C23.042 22.5811 22.9784 22.5577 22.9038 22.5073C22.7464 22.4175 22.5951 22.3635 22.4552 22.2888C22.3316 22.2228 22.2209 22.1339 22.0977 22.0242C22.0449 21.4161 21.9987 20.8389 21.9492 20.2194C22.1016 20.2078 22.2731 20.1947 22.4766 20.1792C22.3668 19.6816 21.9562 19.8309 21.6619 19.766C21.7392 19.6868 21.8165 19.6075 21.8938 19.5283C21.6929 19.4551 21.4666 19.4157 21.3007 19.2963C21.1993 19.2232 21.1908 19.0272 21.1406 18.8865Z" fill="#B49275"/>
<path d="M12.7513 13.3514C12.9007 13.0237 13.0566 12.6758 13.2856 12.3824C13.4534 12.1675 13.4458 12.1005 13.1995 11.9899C12.9643 11.8842 12.7634 11.7074 12.5334 11.5877C12.4273 11.5325 12.2879 11.5367 12.163 11.5175C11.9572 11.4859 11.751 11.4573 11.5596 11.4071C12.4677 11.3873 13.3614 11.3966 14.2546 11.3784C14.3859 11.3757 14.5144 11.2423 14.6443 11.1694C14.6885 10.6906 14.7328 10.2118 14.7771 9.73319C14.3525 9.92822 14.251 9.56061 14.118 9.24722C14.0772 9.15135 14.0716 9.04142 14.032 8.94491C13.9407 8.72224 13.7253 8.48512 14.1237 8.33829C14.4865 8.2046 14.7123 8.31767 14.8483 8.68819C14.8608 8.72225 14.894 8.74906 14.9376 8.80479C15.0316 8.6982 15.0975 8.56301 15.2051 8.51262C15.5503 8.35096 15.82 8.53103 15.9452 8.95153C15.999 9.13213 16.0726 9.32037 16.1879 9.46716C16.365 9.6926 16.3408 9.90423 16.2243 10.1274C16.1001 10.3652 16.129 10.5174 16.4224 10.5947C16.7029 10.6687 16.8041 10.8194 16.5918 11.0832C16.5371 11.1512 16.5155 11.3053 16.557 11.3759C16.7364 11.6808 16.9461 11.9686 17.1417 12.2646C17.1842 12.329 17.1992 12.4168 17.2532 12.4666C17.358 12.5633 17.4815 12.6406 17.6436 12.7488C17.7829 12.9191 17.876 13.0665 17.9691 13.2139C17.9691 13.2139 17.9711 13.2481 17.9777 13.2905C18.0334 13.4218 18.0824 13.5107 18.1314 13.5996C18.1314 13.5996 18.1352 13.5974 18.1333 13.6268C18.1589 13.7443 18.1866 13.8325 18.2142 13.9206C18.4272 14.5418 18.6345 15.165 18.8553 15.7835C19.0098 16.2167 18.961 16.298 18.4849 16.2817C17.9892 16.2647 17.4941 16.2323 16.961 16.2092C16.4873 16.2702 16.2861 16.0852 16.1714 15.6637C15.9992 15.0315 15.7309 14.4249 15.5226 13.8012C15.4416 13.5588 15.3166 13.4168 15.0448 13.4111C14.2929 13.3953 13.541 13.3738 12.7513 13.3514ZM15.4043 9.13706C15.3547 9.1083 15.305 9.07953 15.2554 9.05076C15.2404 9.08066 15.2254 9.11056 15.2104 9.14046C15.2727 9.15256 15.335 9.16466 15.4043 9.13706Z" fill="#B49275"/>
<path d="M21.1344 18.8567C21.1913 19.0273 21.1998 19.2233 21.3012 19.2963C21.467 19.4158 21.6934 19.4552 21.8942 19.5283C21.8169 19.6076 21.7396 19.6868 21.6623 19.7661C21.9566 19.8309 22.3672 19.6816 22.477 20.1793C22.2735 20.1948 22.102 20.2079 21.9497 20.2195C21.9992 20.8389 22.0453 21.4161 22.0677 22.0241C21.9294 22.0287 21.815 22.0026 21.6912 21.952C21.5801 21.8648 21.4782 21.8019 21.344 21.739C21.2253 21.739 21.1389 21.739 21.0349 21.7247C20.9751 21.6937 20.933 21.6768 20.86 21.6592C20.5515 21.5542 20.2739 21.4499 19.9962 21.3456C19.9499 21.3087 19.9035 21.2717 19.8429 21.1873C19.7462 21.0777 19.6637 21.0156 19.5812 20.9535C18.3362 19.8554 18.2777 17.5571 19.4903 16.4557C19.635 16.3895 19.7697 16.3553 19.8758 16.2816C20.2473 16.0236 20.5506 15.6686 21.0847 15.6868C21.2907 15.6938 21.5016 15.5289 21.7124 15.4474C21.8666 15.3878 22.0242 15.3365 22.1789 15.282C22.4753 16.0532 22.4753 16.0532 21.7527 16.6154C21.9429 16.6272 22.0704 16.6057 22.1683 16.6486C22.2878 16.701 22.3823 16.8075 22.4877 16.8905C22.3926 16.977 22.3112 17.09 22.1998 17.1449C21.8832 17.301 21.5096 17.3809 21.247 17.5946C21.0858 17.7258 21.087 18.0474 21.0298 18.308C21.0721 18.4972 21.0999 18.662 21.1344 18.8567ZM21.9694 15.587C21.93 15.6809 21.8906 15.7747 21.8512 15.8686C21.9096 15.8745 21.968 15.8803 22.0264 15.8862C22.0249 15.7873 22.0235 15.6884 21.9694 15.587Z" fill="#B49275"/>
<path d="M22.4805 26.2183C22.5744 26.6651 22.6635 27.1053 22.2561 27.4622C22.5823 27.5705 22.5823 27.5705 22.7408 27.1703C22.87 27.1645 23.0097 27.1582 23.1649 27.1513C22.9528 27.4015 22.7491 27.6156 22.5832 27.8548C22.5383 27.9195 22.5681 28.1086 22.6312 28.1574C22.9759 28.4238 23.3699 28.5602 23.8213 28.4953C24.4713 28.4019 25.1223 28.3151 25.8079 28.227C25.6908 28.2944 25.5386 28.3603 25.3633 28.4414C24.0412 28.6926 22.7476 28.6989 21.4596 28.3784C20.1838 28.0609 19.224 27.3084 18.6374 26.1944C18.3202 25.592 18.2331 24.8704 18.0788 24.1946C18.0578 24.1026 18.2376 23.8762 18.3456 23.8617C19.0106 23.7721 19.6812 23.7174 20.3516 23.6771C20.4188 23.673 20.5384 23.833 20.5634 23.9334C20.7382 24.6375 20.9961 25.2948 21.6245 25.7358C21.8837 25.9177 22.1776 26.0525 22.4805 26.2183Z" fill="#B49275"/>
<path d="M25.3386 23.4186C26.4287 24.3637 25.6273 25.8731 24.493 26.1393C24.3885 26.1638 24.2847 26.1906 24.1507 26.2223C23.9048 26.2074 23.6889 26.1857 23.4728 26.1657C23.1611 26.1368 22.7747 26.2083 22.8686 25.6782C22.8786 25.6219 22.7064 25.4949 22.6009 25.4685C22.4487 25.4304 22.2795 25.4633 22.119 25.4499C21.8734 25.4293 21.6374 25.4007 21.7913 25.0475C21.8198 24.982 21.7284 24.867 21.693 24.7745C21.6525 24.6689 21.5682 24.5571 21.5819 24.4584C21.6125 24.2373 21.5271 24.1527 21.3188 24.1011C21.1171 24.0511 20.8622 23.3641 20.9767 23.2047C21.018 23.1473 21.1167 23.1323 21.1704 23.0796C21.2472 23.0041 21.3067 22.9117 21.375 22.7967C21.7369 22.6861 22.0974 22.6054 22.5252 22.5234C22.7001 22.5263 22.8076 22.5304 22.9151 22.5344C22.9787 22.5579 23.0423 22.5813 23.1551 22.6237C23.8635 22.8681 24.5226 23.0935 25.1818 23.3189C25.1818 23.3189 25.2122 23.3246 25.2419 23.3423C25.2938 23.3795 25.3162 23.399 25.3386 23.4186Z" fill="#B49275"/>
<path d="M22.904 22.5074C22.8076 22.5303 22.7001 22.5262 22.561 22.5217C21.9189 22.303 21.2999 22.1043 20.7019 21.8572C20.4539 21.7547 20.2509 21.5486 20.0117 21.3677C20.2737 21.45 20.5513 21.5543 20.8656 21.6777C20.9523 21.7109 21.0024 21.725 21.0524 21.739C21.1388 21.7391 21.2251 21.7391 21.3514 21.7652C21.4943 21.853 21.5973 21.9148 21.7003 21.9765C21.8148 22.0026 21.9293 22.0288 22.0743 22.055C22.2212 22.134 22.3319 22.2229 22.4555 22.2889C22.5953 22.3636 22.7467 22.4176 22.904 22.5074Z" fill="#B49275"/>
<path d="M21.3824 22.7397C20.9805 22.6166 20.5842 22.4663 20.1113 22.287C20.5325 21.9345 20.8412 22.1182 21.1354 22.2269C21.3478 22.3055 21.5026 22.4524 21.3824 22.7397Z" fill="#B49275"/>
<path d="M17.9685 13.1818C17.8761 13.0667 17.783 12.9193 17.6757 12.75C17.4434 12.1159 17.2254 11.5036 17.0039 10.8616C17.1437 11.0436 17.3333 11.2387 17.4209 11.4705C17.6289 12.0209 17.7886 12.5888 17.9685 13.1818Z" fill="#B49275"/>
<path d="M21.0035 28.4269C21.1001 28.4832 21.1705 28.5294 21.2558 28.5853C20.6951 28.865 20.4311 28.8005 20.3613 28.3257C20.5791 28.3579 20.7783 28.3873 21.0035 28.4269Z" fill="#B49275"/>
<path d="M16.761 10.1553C16.711 10.0498 16.6612 9.91411 16.6357 9.75029C16.6936 9.72264 16.7272 9.72307 16.7608 9.72349C16.7611 9.75842 16.7613 9.79335 16.7621 9.85446C16.7621 9.96207 16.7616 10.0435 16.761 10.1553Z" fill="#B49275"/>
<path d="M19.5928 20.9761C19.664 21.0155 19.7464 21.0776 19.8311 21.1685C19.7569 21.1311 19.6805 21.0649 19.5928 20.9761Z" fill="#B49275"/>
<path d="M18.132 13.5714C18.0824 13.5107 18.0334 13.4218 17.9805 13.3074C18.0286 13.369 18.0807 13.4561 18.132 13.5714Z" fill="#B49275"/>
<path d="M18.2149 13.8919C18.1866 13.8325 18.1589 13.7444 18.1318 13.6279C18.1601 13.6875 18.1878 13.7753 18.2149 13.8919Z" fill="#B49275"/>
<path d="M14.9268 15.3948C15.0611 15.2143 15.1924 15.0577 15.387 14.8257C15.4295 14.991 15.5001 15.1665 15.4742 15.1813C15.3022 15.2796 15.1096 15.3436 14.9268 15.3948Z" fill="#B49275"/>
<path d="M16.4308 16.365C16.4138 16.4198 16.3824 16.4597 16.351 16.4995C16.3212 16.4676 16.2915 16.4357 16.2617 16.4038C16.3132 16.3858 16.3648 16.3679 16.4308 16.365Z" fill="#B49275"/>
<path d="M15.5 16.4196C15.4558 16.3677 15.4271 16.3022 15.3984 16.2367C15.4316 16.2288 15.4648 16.221 15.498 16.2131C15.5038 16.2774 15.5096 16.3417 15.5 16.4196Z" fill="#B49275"/>
<path d="M15.7114 15.5503C15.7174 15.5655 15.7136 15.5804 15.7099 15.5953C15.7072 15.5802 15.7045 15.565 15.7114 15.5503Z" fill="#B49275"/>
<path d="M13.8213 3.87744C13.9053 3.93332 13.9746 4.00422 14.0438 4.07513C14.0001 4.10034 13.9564 4.12556 13.9127 4.15078C13.8773 4.06467 13.8419 3.97857 13.8213 3.87744Z" fill="#B49275"/>
<path d="M10.5105 7.67188C10.496 7.71525 10.4579 7.76781 10.3945 7.82577C10.4085 7.78114 10.4477 7.7311 10.5105 7.67188Z" fill="#B49275"/>
<path d="M27.5615 28.537C27.6043 28.4181 27.6498 28.2365 27.757 28.1899C28.1329 28.0265 27.9962 27.8034 27.8192 27.6406C27.5021 27.3488 27.6541 27.2298 27.9881 27.1208C27.9568 27.3707 27.9217 27.6008 28.3259 27.5673C28.4005 27.5612 28.5544 27.6662 28.5511 27.7116C28.5397 27.8696 28.5254 28.0964 28.4211 28.1652C28.1726 28.329 27.8721 28.4174 27.5615 28.537Z" fill="#B49275"/>
<path d="M28.1309 27.0355C28.2424 26.7266 28.3875 26.4177 28.5577 26.0979C28.6414 26.1135 28.6999 26.14 28.6902 26.1356C28.6442 26.3791 28.5864 26.5803 28.5725 26.7844C28.5529 27.0713 28.3458 27.0234 28.1309 27.0355Z" fill="#B49275"/>
<path d="M29.1199 26.0946C29.0915 26.022 29.0843 25.9598 29.0771 25.8975C29.1404 25.9255 29.2036 25.9535 29.2669 25.9815C29.2249 26.0226 29.183 26.0637 29.1199 26.0946Z" fill="#B49275"/>
<path d="M28.9599 26.5974C28.9185 26.6034 28.8836 26.5921 28.8486 26.5808C28.8619 26.5497 28.8753 26.5185 28.8886 26.4873C28.9145 26.5182 28.9404 26.5492 28.9599 26.5974Z" fill="#B49275"/>
<path d="M16.7823 9.70788C16.7278 9.72318 16.6942 9.72276 16.6356 9.72199C16.6042 9.68891 16.5979 9.65617 16.6033 9.57711C16.5292 9.22592 16.4433 8.92107 16.3574 8.61621C16.7452 8.79004 16.9428 9.26698 16.7823 9.70788Z" fill="#B49275"/>
<path d="M16.3543 8.58822C16.4429 8.92097 16.5288 9.22583 16.6003 9.55214C16.427 9.17066 16.268 8.76774 16.1045 8.33472C16.1838 8.38985 16.2677 8.47508 16.3543 8.58822Z" fill="#B49275"/>
<path d="M21.6868 14.3348C21.6523 14.2171 21.6416 14.1147 21.6309 14.0123C21.7159 14.0082 21.8228 13.9719 21.8801 14.0089C21.9428 14.0493 21.9596 14.1575 21.9964 14.2362C21.9012 14.2741 21.8059 14.3121 21.6868 14.3348Z" fill="#B49275"/>
<path d="M23.1104 14.4785C23.2427 14.4261 23.3674 14.4002 23.4921 14.3743C23.4675 14.4508 23.4669 14.5605 23.4136 14.5973C23.2923 14.681 23.1366 14.7548 23.1104 14.4785Z" fill="#B49275"/>
<path d="M20.8551 13.3458C20.8071 13.2284 20.7805 13.1001 20.7539 12.9718C20.8179 12.9707 20.8819 12.9696 20.9459 12.9685C20.9227 13.0907 20.8996 13.2128 20.8551 13.3458Z" fill="#B49275"/>
<path d="M14.6275 11.1452C14.5142 11.2424 14.3857 11.3758 14.2543 11.3785C13.3612 11.3967 12.4675 11.3874 11.536 11.389C11.4743 11.3274 11.4505 11.2639 11.4268 11.1744C11.6927 10.5355 11.9586 9.9226 12.231 9.28106C12.5268 8.59214 12.8162 7.93181 13.1056 7.27148C13.1418 7.27217 13.1781 7.27285 13.2143 7.27353C13.6799 8.55597 14.1455 9.83841 14.6275 11.1452Z" fill="#B49275"/>
<path d="M9.9502 12.6958C10.0465 12.6102 10.1516 12.5472 10.2567 12.4841C10.2806 12.5477 10.3044 12.6112 10.3282 12.6747C10.2051 12.6893 10.0821 12.7038 9.9502 12.6958Z" fill="#B49275"/>
<path d="M10.721 10.6118C10.7349 10.6892 10.7413 10.7514 10.7268 10.8086C10.7208 10.8325 10.6703 10.8456 10.6401 10.8636C10.6077 10.8439 10.5753 10.8241 10.543 10.8043C10.597 10.7344 10.651 10.6645 10.721 10.6118Z" fill="#B49275"/>
<path d="M12.7714 12.5697C12.7368 12.5992 12.702 12.6106 12.6673 12.6221C12.6672 12.5876 12.6671 12.5532 12.667 12.5188C12.7018 12.5297 12.7366 12.5407 12.7714 12.5697Z" fill="#B49275"/>
<path d="M25.1717 23.2936C24.5227 23.0934 23.8635 22.868 23.1807 22.6266C23.232 22.5902 23.322 22.5328 23.3797 22.555C23.9767 22.7854 24.5684 23.0287 25.1717 23.2936Z" fill="#B49275"/>
<path d="M25.3263 23.4C25.3167 23.3989 25.2943 23.3794 25.2578 23.3425C25.267 23.344 25.2903 23.3628 25.3263 23.4Z" fill="#B49275"/>
<path d="M15.4003 9.15693C15.3345 9.16468 15.2722 9.15258 15.21 9.14048C15.2249 9.11058 15.2399 9.08068 15.2549 9.05078C15.3046 9.07955 15.3542 9.10831 15.4003 9.15693Z" fill="#B49275"/>
<path d="M21.9961 15.5884C22.0239 15.6885 22.0253 15.7874 22.0268 15.8864C21.9684 15.8805 21.91 15.8746 21.8516 15.8687C21.891 15.7748 21.9304 15.681 21.9961 15.5884Z" fill="#B49275"/>
<path d="M21.6911 21.9521C21.5973 21.9147 21.4943 21.853 21.3838 21.7651C21.4781 21.8019 21.58 21.8648 21.6911 21.9521Z" fill="#B49275"/>
<path d="M21.0348 21.7247C21.0024 21.7248 20.9524 21.7108 20.8965 21.6783C20.9328 21.6768 20.9749 21.6936 21.0348 21.7247Z" fill="#B49275"/>
</g>
<path d="M45.344 31H44.96L54.528 8.6L54.88 8.44L62.944 31H60.224L57.728 23.96H48.384L45.344 31ZM53.536 12.056L48.512 23.64H57.632L53.536 12.056ZM67.6258 13.496V15H70.1538V15.256H67.6258V31H65.3858V15.256H64.7138V15H65.3858V13.496C65.3858 11.1707 65.8871 9.51733 66.8898 8.536C67.8924 7.53333 69.5138 7.02133 71.7538 7V7.256C70.2818 7.27733 69.2258 7.77866 68.5858 8.76C67.9458 9.72 67.6258 11.2987 67.6258 13.496ZM78.517 16.376V15.704C77.557 16.088 76.6823 16.8667 75.893 18.04C75.1037 19.192 74.6877 20.28 74.645 21.304V31H72.405V15H74.645V20.088C74.9863 18.8507 75.637 17.688 76.597 16.6C77.557 15.4907 78.645 14.9147 79.861 14.872H79.989C80.4157 14.872 80.7677 15.0213 81.045 15.32C81.3437 15.5973 81.493 15.9493 81.493 16.376C81.493 16.8027 81.3437 17.1547 81.045 17.432C80.7677 17.7093 80.4157 17.848 79.989 17.848C79.5623 17.848 79.2103 17.7093 78.933 17.432C78.6557 17.1547 78.517 16.8027 78.517 16.376ZM87.169 31C86.2943 31 85.6223 30.808 85.153 30.424C84.705 30.04 84.4703 29.656 84.449 29.272L84.417 28.728V15H86.657V28.728C86.657 29.3467 86.7743 29.8267 87.009 30.168C87.265 30.488 87.5103 30.6587 87.745 30.68L88.129 30.744H89.121V31H87.169ZM84.609 11.416C84.353 11.16 84.225 10.84 84.225 10.456C84.225 10.072 84.353 9.752 84.609 9.496C84.865 9.21866 85.185 9.08 85.569 9.08C85.953 9.08 86.273 9.21866 86.529 9.496C86.8063 9.752 86.945 10.072 86.945 10.456C86.945 10.84 86.8063 11.16 86.529 11.416C86.273 11.672 85.953 11.8 85.569 11.8C85.185 11.8 84.865 11.672 84.609 11.416ZM97.5805 15.128C96.0658 15.128 94.7965 15.8533 93.7725 17.304C92.7698 18.7547 92.2685 20.76 92.2685 23.32C92.2685 25.88 92.7272 27.7787 93.6445 29.016C94.5832 30.2533 95.8098 30.872 97.3245 30.872C99.2232 30.872 100.909 30.552 102.381 29.912L102.477 30.136C100.962 30.7973 99.1912 31.128 97.1645 31.128C95.1378 31.128 93.4525 30.488 92.1085 29.208C90.7645 27.928 90.0925 25.9547 90.0925 23.288C90.0925 20.6213 90.7965 18.552 92.2045 17.08C93.6125 15.608 95.4045 14.872 97.5805 14.872C98.7965 14.872 99.9165 15.1493 100.941 15.704C101.986 16.2587 102.754 17.1013 103.245 18.232H101.197C100.877 17.1867 100.386 16.408 99.7245 15.896C99.0845 15.384 98.3698 15.128 97.5805 15.128ZM118.402 31C116.952 31 115.96 30.7227 115.426 30.168C114.936 29.6987 114.69 29.2933 114.69 28.952V28.28C113.645 30.1787 111.97 31.128 109.666 31.128C106.978 31.128 105.453 29.912 105.09 27.48C105.048 27.224 105.026 26.968 105.026 26.712C105.026 26.4347 105.069 26.136 105.154 25.816C105.24 25.496 105.485 25.144 105.89 24.76C106.701 23.992 108.482 23.5227 111.234 23.352C111.917 23.288 112.546 23.256 113.122 23.256C113.698 23.256 114.221 23.2773 114.69 23.32V18.008C114.648 17.9867 114.648 17.8907 114.69 17.72C114.733 17.528 114.69 17.2933 114.562 17.016C114.456 16.7173 114.306 16.4293 114.114 16.152C113.922 15.8747 113.581 15.64 113.09 15.448C112.6 15.2347 111.96 15.128 111.17 15.128C110.381 15.128 109.453 15.2773 108.386 15.576C107.341 15.8533 106.573 16.1307 106.082 16.408L105.954 16.184C107.853 15.3093 109.784 14.872 111.746 14.872C113.944 14.872 115.394 15.2667 116.098 16.056C116.653 16.6747 116.93 17.3253 116.93 18.008V28.728C116.93 29.3467 117.048 29.8267 117.282 30.168C117.538 30.488 117.794 30.6587 118.05 30.68L118.402 30.744H119.394V31H118.402ZM110.178 30.872C111.309 30.872 112.322 30.488 113.218 29.72C114.136 28.9307 114.626 28.1733 114.69 27.448V23.576C114.114 23.5333 113.528 23.512 112.93 23.512C112.354 23.512 111.778 23.544 111.202 23.608C109.581 23.8 108.525 24.1627 108.034 24.696C107.544 25.2293 107.298 25.9653 107.298 26.904C107.298 27.0747 107.309 27.2667 107.33 27.48C107.522 29.7413 108.472 30.872 110.178 30.872ZM144.111 9.944C142.169 9.19733 140.335 8.824 138.607 8.824C136.9 8.824 135.567 9.18667 134.607 9.912C133.647 10.6373 133.167 11.64 133.167 12.92C133.167 14.4773 133.977 15.6827 135.599 16.536C136.324 16.8987 137.113 17.24 137.967 17.56C138.841 17.8587 139.716 18.2 140.591 18.584C141.465 18.968 142.265 19.4053 142.991 19.896C143.716 20.3867 144.303 21.0693 144.751 21.944C145.199 22.7973 145.423 23.896 145.423 25.24C145.423 26.5627 145.049 27.6933 144.303 28.632C143.556 29.5707 142.649 30.2107 141.583 30.552C140.537 30.872 139.311 31.032 137.903 31.032C135.279 31.032 133.039 30.3813 131.183 29.08L131.343 28.824C132.047 29.3787 132.953 29.8373 134.062 30.2C135.193 30.5413 136.345 30.712 137.519 30.712C139.247 30.712 140.719 30.3173 141.935 29.528C143.172 28.7173 143.791 27.5333 143.791 25.976C143.791 24.2693 142.98 22.936 141.359 21.976C140.633 21.5493 139.833 21.1547 138.959 20.792C138.105 20.4293 137.241 20.056 136.367 19.672C135.492 19.2667 134.692 18.8187 133.967 18.328C132.345 17.2613 131.535 15.7467 131.535 13.784C131.535 12.2267 132.057 10.968 133.103 10.008C134.148 9.02667 135.716 8.536 137.807 8.536C139.919 8.536 142.063 8.89867 144.239 9.624L144.111 9.944ZM147.651 15.256V15H148.323V11.8H150.563V15H155.459V15.256H150.563V26.904C150.563 28.2907 150.713 29.2933 151.011 29.912C151.331 30.5307 151.982 30.84 152.963 30.84C153.966 30.84 154.979 30.6373 156.003 30.232L156.099 30.488C155.033 30.8933 153.806 31.096 152.419 31.096C151.054 31.096 150.03 30.8187 149.347 30.264C148.665 29.688 148.323 28.5573 148.323 26.872V15.256H147.651ZM164.489 31.128C162.249 31.128 160.425 30.488 159.017 29.208C157.609 27.928 156.905 25.9547 156.905 23.288C156.905 20.6213 157.63 18.552 159.081 17.08C160.553 15.608 162.409 14.872 164.649 14.872C166.91 14.872 168.745 15.512 170.153 16.792C171.561 18.072 172.265 20.0453 172.265 22.712C172.265 25.3787 171.529 27.448 170.057 28.92C168.606 30.392 166.75 31.128 164.489 31.128ZM164.713 15.128C163.092 15.128 161.748 15.8533 160.681 17.304C159.614 18.7333 159.081 20.7387 159.081 23.32C159.081 25.88 159.572 27.7787 160.553 29.016C161.534 30.2533 162.836 30.872 164.457 30.872C166.078 30.872 167.422 30.1573 168.489 28.728C169.556 27.2773 170.089 25.272 170.089 22.712C170.089 20.1307 169.598 18.2213 168.617 16.984C167.636 15.7467 166.334 15.128 164.713 15.128ZM187.466 31C186.592 31 185.92 30.808 185.45 30.424C185.002 30.04 184.768 29.656 184.746 29.272L184.714 28.728V18.68C184.714 16.9947 184.277 15.9173 183.402 15.448C182.954 15.2347 182.4 15.128 181.738 15.128C180.373 15.128 179.146 15.672 178.058 16.76C176.97 17.8267 176.426 18.7867 176.426 19.64V31H174.186V15H176.426V18.648C176.789 17.7307 177.461 16.8773 178.442 16.088C179.424 15.2773 180.501 14.872 181.674 14.872C182.848 14.872 183.797 14.9893 184.522 15.224C185.269 15.4373 185.813 15.7467 186.154 16.152C186.688 16.8133 186.954 17.6667 186.954 18.712V28.728C186.954 29.3467 187.072 29.8267 187.306 30.168C187.562 30.488 187.818 30.6587 188.074 30.68L188.426 30.744H189.418V31H187.466ZM192.894 23.192C192.894 25.8373 193.352 27.7787 194.27 29.016C195.208 30.2533 196.435 30.872 197.95 30.872C200.083 30.872 201.982 30.552 203.646 29.912L203.742 30.136C202.035 30.7973 200.104 31.128 197.95 31.128C195.816 31.128 194.078 30.488 192.734 29.208C191.39 27.928 190.718 25.9547 190.718 23.288C190.718 20.6213 191.422 18.552 192.83 17.08C194.238 15.608 196.03 14.872 198.206 14.872C199.955 14.872 201.427 15.3947 202.622 16.44C203.816 17.4853 204.414 19.032 204.414 21.08C204.414 21.1867 204.414 21.2933 204.414 21.4H192.99C192.926 21.976 192.894 22.5733 192.894 23.192ZM202.238 21.144C202.216 19.096 201.822 17.5813 201.054 16.6C200.286 15.6187 199.294 15.128 198.078 15.128C196.862 15.128 195.774 15.6613 194.814 16.728C193.875 17.7947 193.278 19.2667 193.022 21.144H202.238Z" fill="white"/>
<defs>
<clipPath id="clip0_7_1052">
<rect width="40" height="40" fill="white"/>
</clipPath>
</defs>
</svg>
