<svg width="206" height="40" viewBox="0 0 206 40" fill="none" xmlns="http://www.w3.org/2000/svg">
<g clip-path="url(#clip0_1_1712)">
<path d="M17.6558 4.49742C18.2334 4.50626 18.7745 4.55398 19.2213 5.01618C19.4329 5.23496 19.7994 5.31409 20.1003 5.44646C20.5013 5.62284 20.7158 5.55027 20.931 5.18039C21.3778 4.41229 21.571 4.36563 22.4358 4.67417C23.0853 4.90588 23.7534 5.09172 24.4214 5.26801C24.6491 5.3281 24.9052 5.32605 25.143 5.30197C25.8858 5.22674 25.946 5.24411 26.2846 5.88817C26.8394 6.94327 27.5367 7.90477 28.2614 8.85304C28.4836 9.14383 28.5901 9.52038 28.7406 9.8614C28.835 10.0752 28.8936 10.3055 29.0014 10.512C29.5377 11.539 30.3101 12.3568 31.2595 13.0463C31.5514 13.2583 31.7509 13.6521 31.8786 14.0022C32.0056 14.3504 32.1831 14.5629 32.548 14.5591C32.8505 14.556 33.1652 14.5241 33.4517 14.4349C34.0433 14.2507 34.6305 14.0976 35.2211 14.1802C35.415 15.298 35.0487 16.2348 34.5332 17.2033C34.2081 17.8141 33.8456 18.2753 33.2909 18.6667C32.1028 19.505 31.3474 20.744 30.3899 21.7949C30.1561 22.0516 30.1596 22.547 30.1266 22.9384C30.0665 23.6508 30.2543 24.303 30.7764 24.8365C30.809 24.8697 30.8443 24.9228 30.841 24.9637C30.7701 25.8318 30.995 26.7233 30.6016 27.5674C30.4575 27.8765 30.313 28.1547 29.8938 28.2222C29.8549 28.2257 29.8203 28.2361 29.8203 28.2361C29.7802 28.2509 29.74 28.2657 29.6564 28.258C29.4237 28.0196 29.3269 27.3127 29.5333 27.1906C29.6889 27.0986 29.9663 27.2039 30.1896 27.219C30.2146 27.2207 30.2407 27.2073 30.2662 27.2005C30.6348 26.6064 30.5547 25.8466 29.9696 25.3535C29.9907 25.7226 30.0253 25.9953 30.0126 26.266C30.0073 26.38 29.9021 26.4896 29.8423 26.6011C29.791 26.4969 29.7056 26.396 29.6946 26.2879C29.6605 25.9525 29.7404 25.5789 29.6136 25.2875C29.4875 24.9979 29.5699 24.7999 29.7327 24.6601C30.045 24.3917 29.9211 24.1449 29.767 23.895C29.5334 23.5163 29.138 23.192 29.4528 22.6763C28.9199 22.6496 28.833 22.588 28.9857 22.3693C29.2774 21.9513 29.1293 21.5323 29.0391 21.1166C28.9956 20.9163 28.8625 20.7611 28.6321 21.0273C28.4106 21.0213 28.1662 20.9624 28.307 20.7526C28.4903 20.4794 28.635 20.2711 28.3962 19.9659C28.3571 19.916 28.4376 19.7689 28.4756 19.6714C28.5412 19.5031 28.6167 19.3385 28.7071 19.1281C28.8469 19.1281 29.0075 19.1281 29.2297 19.1281C29.1052 18.9766 29.0268 18.8812 28.9756 18.8189C29.0801 18.6101 29.175 18.4416 29.2503 18.2652C29.3732 17.9773 29.3458 17.5718 29.9763 17.6492C29.7942 17.5045 29.7351 17.4201 29.6612 17.4052C29.2995 17.3318 28.9359 17.2571 28.569 17.222C28.2797 17.1942 27.7916 16.8162 27.8813 16.5937C28.0252 16.2365 27.9102 15.9553 27.7959 15.6291C27.7114 15.3878 27.6061 15.2913 27.3644 15.245C27.2491 15.2229 27.1054 15.1067 27.0625 14.9996C26.8502 14.4693 26.6673 13.9278 26.4428 13.3033C26.8171 13.3782 27.1486 13.4446 27.4585 13.5066C27.4237 13.6643 27.3308 13.8433 27.3827 13.9039C27.4745 14.0108 27.6545 14.0455 27.7975 14.1105C27.8516 13.9868 27.9175 13.8665 27.9573 13.7386C28.0613 13.4046 27.8317 13.3433 27.573 13.2777C27.4173 13.2383 27.279 13.1333 27.1328 13.0577C27.1538 13.0062 27.1748 12.9547 27.1959 12.9032C27.474 12.9032 27.7521 12.9032 28.1541 12.9032C27.8944 12.6403 27.7427 12.4381 27.5451 12.2973C27.1852 12.0408 26.8079 11.8159 27.1669 11.2047C26.9033 11.2676 26.766 11.3311 26.6331 11.3235C26.4958 11.3155 26.3641 11.2089 26.2272 11.2025C26.1452 11.1988 26.0489 11.2953 25.9756 11.3636C25.9069 11.4276 25.8601 11.5138 25.7855 11.6149C25.6094 11.1783 25.8166 10.9512 26.2652 10.9475C26.476 10.9458 26.6978 10.8617 26.8908 10.768C26.9776 10.7259 27.0058 10.5688 27.0605 10.4639C26.9238 10.4363 26.7788 10.3671 26.6526 10.3914C26.4879 10.423 26.3437 10.5477 26.1794 10.5942C26.0979 10.6173 25.9464 10.5833 25.9075 10.5243C25.8636 10.4577 25.8825 10.3193 25.9261 10.2391C25.9723 10.1541 26.0753 10.0948 26.1611 10.0347C26.3607 9.89488 26.3629 9.76572 26.1444 9.64972C25.9973 9.5716 25.8442 9.50426 25.6412 9.40685C25.6178 9.57282 25.5951 9.68364 25.588 9.7954C25.5759 9.98777 25.5615 10.2126 25.3011 10.1606C25.2108 10.1426 25.1163 9.90435 25.1108 9.76344C25.0891 9.21151 24.8905 9.02447 24.3143 9.06786C23.9486 9.0954 23.5826 9.12158 23.2134 9.14863C23.1959 8.94464 23.1953 8.72316 23.1506 8.51052C23.1305 8.41498 23.0089 8.25567 22.9561 8.26394C22.4918 8.33675 22.4924 8.09845 22.572 7.77457C22.5876 7.71099 22.543 7.63331 22.5375 7.60993C22.3304 7.60993 22.0276 7.64677 22.0152 7.6037C21.9534 7.38978 21.9666 7.15487 21.9567 6.92721C21.9524 6.82838 21.9559 6.72923 21.9559 6.63023C21.5054 7.32988 21.4376 7.37155 20.9918 7.1488C21.3075 6.8786 21.329 6.59289 21.0638 6.26142C20.9906 6.32749 20.962 6.35377 20.9328 6.37949C20.8188 6.48021 20.6771 6.68049 20.5966 6.65931C20.4561 6.62234 20.3482 6.4534 20.2363 6.3313C20.1676 6.25635 20.1362 6.13112 20.055 6.08793C19.6894 5.89362 19.3119 5.72059 18.9104 5.52615C18.9143 5.4462 18.9212 5.30612 18.9261 5.20825C18.5229 5.09347 18.145 5.00695 17.7883 4.86843C17.7067 4.83672 17.698 4.62584 17.6558 4.49742Z" fill="#B49275"/>
<path d="M17.6507 4.47282C17.6977 4.62575 17.7064 4.83663 17.788 4.86835C18.1447 5.00687 18.5226 5.09339 18.9257 5.20817C18.9209 5.30604 18.914 5.44611 18.9101 5.52607C19.3116 5.7205 19.6891 5.89354 20.0547 6.08785C20.1359 6.13104 20.1673 6.25626 20.236 6.33121C20.3479 6.45332 20.4558 6.62225 20.5963 6.65922C20.6768 6.6804 20.8185 6.48012 20.9325 6.3794C20.9616 6.35368 20.9902 6.3274 21.0634 6.26134C21.3287 6.5928 21.3072 6.87851 20.9914 7.14872C21.4372 7.37147 21.5051 7.3298 21.9556 6.63014C21.9556 6.72915 21.952 6.8283 21.9564 6.92712C21.9663 7.15478 21.9531 7.3897 22.0149 7.60362C22.0273 7.64669 22.3301 7.60984 22.5372 7.60984C22.5427 7.63323 22.5873 7.7109 22.5717 7.77449C22.4921 8.09837 22.4915 8.33666 22.9558 8.26386C23.0086 8.25559 23.1302 8.41489 23.1503 8.51044C23.195 8.72307 23.1956 8.94455 23.213 9.14854C23.5823 9.1215 23.9482 9.09532 24.314 9.06777C24.8902 9.02438 25.0888 9.21142 25.1105 9.76335C25.116 9.90426 25.2105 10.1425 25.3008 10.1605C25.5612 10.2125 25.5756 9.98768 25.5877 9.79531C25.5948 9.68355 25.6175 9.57274 25.6408 9.40676C25.8439 9.50417 25.997 9.57151 26.1441 9.64963C26.3626 9.76564 26.3604 9.89479 26.1608 10.0346C26.0749 10.0947 25.9719 10.154 25.9257 10.239C25.8822 10.3192 25.8633 10.4576 25.9072 10.5242C25.9461 10.5832 26.0976 10.6172 26.1791 10.5941C26.3434 10.5476 26.4875 10.4229 26.6522 10.3913C26.7785 10.367 26.9235 10.4362 27.0602 10.4638C27.0054 10.5687 26.9772 10.7258 26.8905 10.7679C26.6975 10.8616 26.4757 10.9457 26.2649 10.9474C25.8163 10.9512 25.6091 11.1782 25.7851 11.6148C25.8598 11.5137 25.9066 11.4275 25.9752 11.3635C26.0486 11.2952 26.1449 11.1987 26.2269 11.2025C26.3638 11.2088 26.4955 11.3155 26.6328 11.3234C26.7657 11.331 26.903 11.2675 27.1666 11.2046C26.8076 11.8158 27.1849 12.0407 27.5448 12.2972C27.7424 12.438 27.8941 12.6402 28.1538 12.9031C27.7518 12.9031 27.4737 12.9031 27.1955 12.9031C27.1745 12.9546 27.1535 13.0061 27.1325 13.0576C27.2787 13.1332 27.417 13.2382 27.5727 13.2777C27.8314 13.3432 28.061 13.4045 27.957 13.7385C27.9172 13.8665 27.8512 13.9867 27.7972 14.1104C27.6542 14.0454 27.4742 14.0107 27.3824 13.9038C27.3305 13.8433 27.4234 13.6642 27.4582 13.5065C27.1483 13.4445 26.8168 13.3781 26.4425 13.3032C26.667 13.9278 26.8499 14.4692 27.0622 14.9995C27.1051 15.1066 27.2488 15.2228 27.3641 15.2449C27.6058 15.2912 27.711 15.3877 27.7956 15.629C27.9099 15.9552 28.0249 16.2364 27.8809 16.5936C27.7913 16.8161 28.2794 17.1941 28.5687 17.2219C28.9356 17.257 29.2992 17.3318 29.6609 17.4051C29.7348 17.4201 29.7939 17.5044 29.976 17.6491C29.3454 17.5717 29.3729 17.9772 29.25 18.2651C29.1747 18.4415 29.0798 18.61 28.9753 18.8188C29.0265 18.8811 29.1048 18.9765 29.2294 19.128C29.0072 19.128 28.8466 19.128 28.7068 19.128C28.6164 19.3384 28.5408 19.503 28.4753 19.6714C28.4373 19.7688 28.3568 19.9159 28.3959 19.9658C28.6347 20.271 28.49 20.4793 28.3067 20.7525C28.1659 20.9623 28.4103 21.0212 28.6238 21.0508C28.4252 21.3371 28.7135 21.4986 28.7868 21.697C28.8559 21.8842 28.9848 22.0551 28.7515 22.2591C28.681 22.0969 28.6278 21.9748 28.5598 21.8183C28.2261 22.0034 28.4379 22.2503 28.3946 22.4404C28.2286 22.2503 28.1079 22.0517 27.9449 21.895C27.6708 21.6313 27.3578 21.4058 27.0885 21.138C27.0188 21.0687 27.0123 20.8919 27.0427 20.7818C27.1595 20.3598 27.3108 19.9448 27.0404 19.5853C27.1884 19.3933 27.319 19.2242 27.4849 19.0524C28.1258 19.0319 28.1814 18.9803 28.0447 18.4042C27.9512 18.0103 27.8043 17.6286 27.6971 17.2197C27.771 16.8629 27.5365 16.7278 27.2857 16.603C27.2851 16.6024 27.2852 16.6008 27.2731 16.5865C27.2438 16.554 27.2248 16.5377 27.2041 16.5242C27.2041 16.5251 27.2015 16.5259 27.2001 16.4973C26.9424 16.1579 26.731 15.7907 26.417 15.5527C26.1149 15.3239 25.7066 15.2287 25.247 15.0331C24.9173 15.1613 24.0246 15.0931 23.8851 14.4337C23.8159 14.1069 23.6573 13.9351 23.249 14.0903C22.8763 14.2319 22.4773 13.9506 22.4469 13.714C22.2575 13.5794 22.0862 13.5207 22.0385 13.4109C21.9354 13.1733 21.8038 13.1987 21.6253 13.2924C21.5479 13.333 21.4672 13.3677 21.3439 13.4259C21.3704 12.9518 21.3686 12.5238 20.6844 12.4794C20.8772 12.3604 20.9889 12.2914 21.1257 12.207C20.9863 12.0791 20.8747 11.9767 20.7403 11.8534C20.8494 11.7538 20.9627 11.6893 21.0126 11.5933C21.0572 11.5075 21.0753 11.3624 21.0298 11.2862C20.8247 10.9422 20.5929 10.6135 20.3706 10.2792C20.4144 10.2828 20.4582 10.2863 20.5019 10.2898C20.5854 10.1137 20.6689 9.93755 20.7885 9.68506C20.5285 9.71841 20.4156 9.7329 20.3181 9.74541C20.3386 9.56131 20.3564 9.40071 20.3846 9.14755C20.0623 9.42394 19.8508 9.60536 19.6301 9.79466C19.5155 9.57563 19.4744 9.34672 19.357 9.29977C18.9207 9.12528 18.9502 8.78484 18.9753 8.44461C18.9888 8.26221 19.0573 8.08368 19.107 7.87863C18.52 7.84037 18.8869 8.39321 18.6173 8.6047C18.5021 8.45979 18.3956 8.32584 18.2782 8.1781C17.7044 8.4926 17.8966 7.86468 17.731 7.74077C17.4832 7.75147 17.2839 7.77664 17.0876 7.76201C16.9799 7.75398 16.7894 7.67946 16.7891 7.63388C16.7881 7.49455 16.8435 7.3455 16.9128 7.21897C16.9477 7.15531 17.0602 7.13221 17.1874 7.06413C17.0494 6.83301 16.9681 6.58146 16.7946 6.43207C16.4888 6.16883 16.12 5.97655 15.7927 5.73504C15.7086 5.67293 15.6298 5.5351 15.6356 5.43699C15.6671 4.90712 15.2895 4.70528 14.8775 4.50634C14.8576 4.50612 14.8178 4.5056 14.8111 4.47956C14.7418 4.37019 14.6916 4.22951 14.6145 4.21375C14.3252 4.15453 14.1274 4.04877 14.128 3.71966C14.128 3.68164 13.9842 3.60944 13.9079 3.61046C13.068 3.62176 12.2268 3.62165 11.3891 3.67337C10.9516 3.70038 10.5477 3.75996 10.3662 3.2482C10.374 3.22981 10.3818 3.21141 10.4088 3.16144C10.4281 3.12987 10.4448 3.10709 10.4448 3.10709C10.6329 3.07935 10.8539 2.97588 11.0031 3.03769C11.5037 3.24507 11.9657 3.12123 12.4443 2.9917C12.8294 2.88748 13.2186 2.77403 13.6134 2.73257C14.4006 2.64992 15.1927 2.6103 15.9833 2.55961C16.8821 2.50198 17.25 3.01296 17.2373 3.7267C17.236 3.80565 17.2397 3.88468 17.2436 4.02817C17.2743 4.22569 17.1918 4.45187 17.4843 4.36269C17.5382 4.39123 17.5921 4.41976 17.6507 4.47282ZM26.4585 12.4127C26.5507 12.4463 26.6429 12.48 26.7856 12.532C26.7992 12.2633 26.81 12.0507 26.8207 11.8381C26.7664 11.8261 26.7121 11.8141 26.6578 11.8022C26.5773 11.9962 26.4969 12.1903 26.4585 12.4127ZM25.3106 11.6586C25.2718 11.7602 25.2329 11.8619 25.1941 11.9635C25.2555 11.9649 25.317 11.9663 25.3784 11.9677C25.3727 11.8666 25.367 11.7655 25.3106 11.6586ZM28.5289 18.1835C28.4839 18.1833 28.4388 18.1831 28.3938 18.1829C28.403 18.2177 28.4123 18.2524 28.4215 18.2872C28.4606 18.2654 28.4998 18.2436 28.5289 18.1835ZM21.932 8.2585C21.9237 8.23146 21.9158 8.20424 21.9056 8.17792C21.9051 8.17674 21.8828 8.18369 21.8706 8.18685C21.8812 8.21324 21.8917 8.23964 21.932 8.2585ZM24.6058 9.65781C24.6376 9.6597 24.6694 9.66159 24.7012 9.66348C24.7017 9.65147 24.7021 9.63946 24.7026 9.62745C24.6707 9.62779 24.6388 9.62813 24.6058 9.65781ZM21.5429 7.52698C21.5432 7.49909 21.544 7.47117 21.5424 7.4434C21.5423 7.44182 21.5217 7.4414 21.5106 7.44044C21.5122 7.46853 21.5138 7.49662 21.5429 7.52698ZM22.8935 9.39502C22.9063 9.40404 22.9191 9.41306 22.9318 9.42208C22.9238 9.40889 22.9157 9.3957 22.8935 9.39502Z" fill="#B49275"/>
<path d="M23.1122 36.3469C23.1122 36.3469 23.0947 36.3638 23.0569 36.365C22.9576 36.3906 22.8961 36.4151 22.8346 36.4396C21.9656 36.6967 21.0869 36.8681 20.171 36.7522C19.572 36.6764 19.3295 36.3978 19.2713 35.8024C19.2315 35.394 19.1307 34.9893 19.029 34.5897C18.9924 34.4459 18.9049 34.2809 18.7874 34.1959C18.0695 33.6769 17.9857 32.895 17.9357 32.1393C17.8761 31.2385 17.5971 30.4155 17.136 29.6655C16.6622 28.8951 16.3936 28.1155 16.6071 27.225C16.6548 27.0264 16.7596 26.8363 16.8629 26.6557C17.6834 25.2216 17.5617 23.7886 16.883 22.3469C16.5545 21.6491 16.0782 21.0659 15.5091 20.5445C15.1464 20.2122 15.1097 20.0404 15.3969 19.6726C15.7432 19.2291 15.6275 18.728 15.6859 18.2031C15.765 18.0907 15.8177 18.0175 15.8941 17.9546C15.9782 18.185 16.0167 18.414 16.1049 18.623C16.21 18.8718 16.1199 19.0223 15.9584 19.218C15.7467 19.4745 15.601 19.7853 15.4484 20.0833C15.4241 20.1307 15.4958 20.2473 15.5511 20.3074C15.7821 20.5587 16.0346 20.7917 16.2585 21.0486C16.484 21.3074 16.685 21.5867 16.8822 21.8385C17.0422 21.7123 17.151 21.5721 17.289 21.5347C17.402 21.5041 17.5499 21.5959 17.6823 21.6335C17.6048 21.7362 17.5439 21.8596 17.4447 21.9354C17.3595 22.0005 17.2307 22.0113 17.0535 22.0676C17.2923 22.3646 17.4696 22.6396 17.7024 22.8582C17.9115 23.0546 18.1817 23.189 18.4418 23.362C17.9571 23.6784 17.7023 24.038 17.7275 24.5677C17.7427 24.8868 17.7798 25.2059 17.5404 25.5055C17.4414 25.6294 17.524 25.8917 17.524 26.0911C17.5802 26.1029 17.6364 26.1148 17.6925 26.1267C17.7861 25.8296 17.8797 25.5325 17.9733 25.2354C18.0733 25.3882 18.1079 25.5551 18.1365 25.7231C18.1605 25.8641 18.1387 26.0272 18.2049 26.144C18.4123 26.5096 18.6625 26.852 18.8715 27.2169C18.9296 27.3183 18.9587 27.5402 18.9041 27.58C18.6926 27.734 18.7606 27.8681 18.8338 28.0562C18.9028 28.2332 18.9258 28.4384 18.9198 28.6297C18.9063 29.0527 18.9954 29.1311 19.4461 29.0271C19.473 28.9095 19.5003 28.7898 19.5319 28.6515C19.7776 28.7806 19.9932 28.9908 20.2074 28.9897C21.2039 28.9842 22.2098 29.1777 23.198 28.8908C23.3211 28.8551 23.4644 28.8859 23.7179 28.8859C23.4777 29.1861 23.3272 29.4068 23.6894 29.5682C23.8896 29.6573 23.996 29.6035 24.0745 29.4132C24.2181 29.4943 24.3359 29.5693 24.4478 29.6723C24.4722 29.8575 24.4823 30.0221 24.5376 30.1706C24.6218 30.3963 24.6876 30.5954 24.408 30.7399C23.7746 31.0671 23.7263 31.743 24.3059 32.1151C24.6723 32.3502 24.6614 32.5231 24.266 32.739C24.0567 32.8533 23.8467 32.9665 23.587 33.1072C24.047 33.3543 24.2422 34.2215 24.9986 33.4731C24.7611 33.8478 25.0214 34.3955 24.4272 34.5316C24.7423 35.0145 24.701 35.0854 24.1763 35.3605C24.0375 35.4333 23.9824 35.6585 23.8697 35.831C23.7558 35.8897 23.6611 35.9311 23.5364 35.9598C23.3255 35.9342 23.1433 35.9046 22.9643 35.9172C22.899 35.9218 22.841 36.0265 22.7797 36.0855C22.836 36.14 22.8887 36.1989 22.9497 36.2478C22.9986 36.2871 23.0576 36.3143 23.1122 36.3469ZM22.4708 29.5924C22.4521 29.5143 22.4334 29.4361 22.4147 29.358C22.3504 29.3896 22.2862 29.4212 22.2219 29.4527C22.2892 29.5064 22.3566 29.56 22.4708 29.5924ZM23.2253 29.8953C23.2343 29.8636 23.2432 29.8318 23.2522 29.8001C23.2197 29.8019 23.1872 29.8037 23.1546 29.8056C23.1677 29.8396 23.1807 29.8735 23.2253 29.8953ZM23.62 30.2832C23.6355 30.2805 23.651 30.2779 23.6664 30.2752C23.6512 30.2716 23.636 30.268 23.62 30.2832Z" fill="#B49275"/>
<path d="M11.5784 16.595C11.4643 16.6485 11.3501 16.702 11.1927 16.7658C11.1297 16.7874 11.1116 16.8007 11.0949 16.8159C10.6396 17.01 10.1691 17.0825 9.66745 17.0847C8.98974 17.0878 8.31261 17.1687 7.63463 17.2057C7.51968 17.212 7.37834 17.1989 7.28892 17.1386C6.66925 16.7206 6.05846 16.29 5.44973 15.8569C5.37719 15.8053 5.30962 15.722 5.28143 15.6398C4.99025 14.7909 4.39976 14.1361 3.81197 13.4827C3.55003 13.1915 3.51503 12.8798 3.63986 12.5387C3.72482 12.3065 3.81622 12.0716 3.94359 11.8602C4.35377 11.1795 4.50897 10.4396 4.54817 9.6619C4.57875 9.05536 4.72973 8.50918 5.22094 8.05704C5.57396 7.73211 5.81798 7.29432 6.15849 6.90088C6.291 6.93088 6.37591 6.99839 6.46025 6.99772C6.97017 6.9937 7.47989 6.96828 7.98983 6.96221C8.23625 6.95928 8.53953 7.06302 8.45337 7.31518C8.25685 7.89033 8.67255 7.76748 8.95455 7.80642C9.06926 7.82226 9.18998 7.79659 9.333 7.78837C9.36583 7.9251 9.36887 8.06441 9.43225 8.16881C9.50688 8.29176 9.63379 8.38446 9.73803 8.49028C9.81372 8.38333 9.87587 8.26319 9.96841 8.17267C10.0938 8.05005 10.2424 7.95014 10.3778 7.86953C10.3177 8.0854 10.261 8.27223 10.1902 8.48301C9.77553 9.43828 9.37482 10.3696 8.95909 11.3168C8.92715 11.3725 8.91023 11.4121 8.87399 11.4676C8.82072 11.5554 8.78678 11.6274 8.7488 11.7165C8.74476 11.7336 8.7407 11.7684 8.72487 11.7863C8.68933 11.8471 8.66964 11.8899 8.63134 11.9529C8.00893 13.298 7.40511 14.623 6.75938 16.04C7.63784 16.0692 8.4128 16.1032 9.18802 16.1102C9.28484 16.1111 9.42728 15.9883 9.47234 15.8896C9.61277 15.582 9.70688 15.2547 9.83674 14.942C10.0573 14.411 10.2914 13.8854 10.5562 13.3564C10.7863 13.3579 10.98 13.3605 11.1839 13.3893C11.4807 13.9577 11.9181 14.4616 11.5187 15.1447C11.4371 15.2844 11.5431 15.5254 11.5525 15.7202C11.5606 15.8877 11.5542 16.0558 11.5542 16.2807C11.3967 16.2203 11.3508 16.1943 11.3018 16.1856C11.1998 16.1676 11.0143 16.1301 11.0066 16.1509C10.9611 16.2749 10.9564 16.4133 10.938 16.5469C11.0422 16.5444 11.1471 16.5336 11.2505 16.5417C11.3606 16.5502 11.4692 16.5765 11.5784 16.595ZM8.04097 7.47781C8.0544 7.43163 8.06782 7.38545 8.08125 7.33928C8.03443 7.33507 7.98761 7.33085 7.94079 7.32664C7.96018 7.37514 7.97957 7.42364 8.04097 7.47781ZM10.3782 16.2149C10.3801 16.1839 10.382 16.1528 10.384 16.1218C10.3717 16.1213 10.3594 16.1209 10.3471 16.1204C10.3474 16.1516 10.3478 16.1827 10.3782 16.2149ZM9.09264 8.29403C9.07717 8.29668 9.06169 8.29934 9.04622 8.30199C9.06144 8.30561 9.07667 8.30924 9.09264 8.29403ZM10.2766 16.6568C10.2793 16.6719 10.282 16.687 10.2847 16.7021C10.2885 16.6872 10.2922 16.6724 10.2766 16.6568Z" fill="#B49275"/>
<path d="M24.0488 29.407C23.9961 29.6033 23.8897 29.6572 23.6895 29.5681C23.3273 29.4067 23.4778 29.1859 23.718 28.8858C23.4645 28.8858 23.3212 28.855 23.1981 28.8907C22.2099 29.1776 21.2039 28.9841 20.2075 28.9895C19.9932 28.9907 19.7777 28.7805 19.532 28.6514C19.5004 28.7897 19.4731 28.9093 19.4462 29.027C18.9955 29.131 18.9064 29.0526 18.9198 28.6296C18.9259 28.4383 18.9028 28.233 18.8339 28.056C18.7606 27.8679 18.6926 27.7338 18.9041 27.5798C18.9587 27.5401 18.9297 27.3182 18.8716 27.2167C18.6626 26.8519 18.4123 26.5095 18.205 26.1439C18.1388 26.0271 18.1606 25.864 18.1365 25.7229C18.1079 25.555 18.0734 25.388 17.9734 25.2352C17.8798 25.5324 17.7862 25.8295 17.6926 26.1266C17.6364 26.1147 17.5802 26.1028 17.5241 26.0909C17.5241 25.8916 17.4414 25.6293 17.5405 25.5054C17.7799 25.2058 17.7428 24.8867 17.7276 24.5676C17.7024 24.0378 17.9572 23.6783 18.4419 23.3619C18.1818 23.1889 17.9116 23.0544 17.7024 22.858C17.4696 22.6394 17.2924 22.3644 17.0536 22.0675C17.2308 22.0112 17.3596 22.0004 17.4448 21.9353C17.5439 21.8595 17.6048 21.7361 17.6823 21.6333C17.5499 21.5958 17.4021 21.5039 17.2891 21.5346C17.1511 21.5719 17.0423 21.7122 16.8823 21.8383C16.6851 21.5865 16.4841 21.3073 16.2586 21.0485C16.0347 20.7916 15.7822 20.5586 15.5511 20.3073C15.4959 20.2472 15.4242 20.1306 15.4485 20.0831C15.6011 19.7852 15.7468 19.4744 15.9585 19.2179C16.12 19.0222 16.21 18.8717 16.105 18.6228C16.0167 18.4138 15.9782 18.1848 15.8838 17.931C15.7759 17.8605 15.7018 17.8237 15.6277 17.7868C15.6052 17.7709 15.5827 17.755 15.5516 17.6924C15.4901 17.5347 15.4372 17.4235 15.3711 17.2919C15.4402 16.7325 15.9379 17.0189 16.2227 16.8842C16.584 16.7133 16.3606 17.2518 16.6833 17.3436C16.7654 16.9559 16.8443 16.5837 16.9608 16.209C17.4939 16.2322 17.9891 16.2645 18.4848 16.2815C18.9608 16.2978 19.0097 16.2165 18.8551 15.7834C18.6344 15.1648 18.4271 14.5417 18.2147 13.8917C18.1877 13.7751 18.1599 13.6873 18.1337 13.5983C18.1351 13.5972 18.1313 13.5995 18.1319 13.5713C18.0805 13.456 18.0285 13.3689 17.9737 13.2648C17.971 13.2479 17.969 13.2138 17.9683 13.1815C17.7884 12.5884 17.6287 12.0206 17.4207 11.4702C17.3331 11.2384 17.1435 11.0433 16.9828 10.8082C16.8973 10.5851 16.8293 10.3853 16.7615 10.1551C16.7622 10.0433 16.7626 9.96191 16.7933 9.87941C16.9056 9.8416 16.9857 9.80015 17.0699 9.76918C17.214 9.7162 17.3605 9.66978 17.506 9.62061C17.5167 9.78341 17.5887 9.97413 17.5268 10.104C17.3058 10.5678 17.3589 10.825 17.7989 11.0504C17.5919 11.6165 17.9543 12.0629 18.1635 12.5344C18.339 12.9302 18.5947 13.2916 18.7873 13.6812C18.825 13.7575 18.746 13.8971 18.7037 14.0009C18.5985 14.2589 18.5846 14.4719 18.8778 14.6405C18.9843 14.7018 19.0479 14.8564 19.1001 14.9808C19.1955 15.2077 19.2636 15.4453 19.3509 15.6756C19.4336 15.8941 19.5895 15.9003 19.7699 15.7926C19.9965 15.6574 20.2205 15.5178 20.3895 15.4145C20.4241 15.2413 20.4502 15.1106 20.4764 14.9799C20.5677 15.0838 20.6609 15.1863 20.7494 15.2925C20.7827 15.3325 20.8051 15.3812 20.8091 15.4429C20.2578 15.6589 19.8454 16.0005 19.4904 16.4555C18.2779 17.557 18.3363 19.8552 19.5927 20.9759C19.6804 21.0648 19.7567 21.131 19.8452 21.2159C19.9037 21.2716 19.95 21.3085 20.012 21.3674C20.2512 21.5484 20.4543 21.7545 20.7022 21.8569C21.3002 22.1041 21.9192 22.3028 22.494 22.5227C22.0977 22.605 21.7372 22.6858 21.3824 22.7394C21.5025 22.4522 21.3477 22.3052 21.1353 22.2267C20.8411 22.1179 20.5324 21.9342 20.1112 22.2868C20.5841 22.4661 20.9804 22.6163 21.3753 22.7964C21.307 22.9114 21.2475 23.0037 21.1707 23.0793C21.117 23.132 21.0183 23.147 20.977 23.2044C20.8625 23.3637 21.1173 24.0508 21.3191 24.1008C21.5274 24.1524 21.6128 24.2369 21.5822 24.4581C21.5685 24.5568 21.6528 24.6686 21.6933 24.7742C21.7287 24.8666 21.8201 24.9816 21.7916 25.0471C21.6376 25.4004 21.8737 25.4289 22.1193 25.4495C22.2798 25.463 22.449 25.4301 22.6012 25.4682C22.7067 25.4946 22.8789 25.6216 22.8689 25.6779C22.775 26.2079 23.1614 26.1364 23.4731 26.1653C23.6892 26.1854 23.9051 26.207 24.084 26.2325C23.5331 26.2339 23.0194 26.2308 22.4809 26.2181C22.178 26.0523 21.8841 25.9175 21.6249 25.7356C20.9965 25.2946 20.7385 24.6373 20.5638 23.9333C20.5388 23.8328 20.4192 23.6728 20.352 23.6769C19.6816 23.7172 19.011 23.7719 18.346 23.8615C18.238 23.876 18.0582 24.1024 18.0792 24.1944C18.2335 24.8702 18.3206 25.5919 18.6378 26.1942C19.2244 27.3082 20.1842 28.0607 21.4599 28.3782C22.748 28.6987 24.0416 28.6924 25.3486 28.4781C25.2176 28.6704 25.0786 28.841 24.9125 29.0117C24.8495 29.0117 24.8135 29.0117 24.7702 28.9861C24.6712 28.9219 24.5334 28.8254 24.4954 28.8543C24.304 28.9996 23.9653 29.0486 24.0488 29.407ZM20.9773 28.4164C20.7781 28.387 20.579 28.3576 20.3612 28.3254C20.4309 28.8002 20.695 28.8647 21.2557 28.5851C21.1703 28.5291 21.0999 28.483 20.9773 28.4164Z" fill="#B49275"/>
<path d="M16.9229 16.2118C16.844 16.584 16.7652 16.9563 16.6831 17.344C16.3604 17.2521 16.5838 16.7137 16.2225 16.8845C15.9377 17.0192 15.44 16.7328 15.3637 17.3133C15.3259 17.3921 15.2821 17.4293 15.2382 17.4666C15.1985 17.4639 15.1588 17.4613 15.087 17.4231C14.9972 17.1163 14.9393 16.845 14.8618 16.4816C14.7176 16.6928 14.5798 16.8412 14.5126 17.0155C14.4785 17.1039 14.5455 17.2593 14.6158 17.3469C14.6733 17.4184 14.8036 17.4342 14.9016 17.4747C14.4335 17.6092 14.0104 17.5387 13.6771 17.1761C13.2187 16.6775 12.6544 16.4643 11.9259 16.5125C11.8306 16.526 11.7858 16.5483 11.7409 16.5707C11.7052 16.579 11.6695 16.5872 11.6061 16.5952C11.4692 16.5764 11.3606 16.5501 11.2505 16.5415C11.1471 16.5335 11.0422 16.5442 10.938 16.5467C10.9564 16.4131 10.9611 16.2748 11.0067 16.1507C11.0143 16.13 11.1998 16.1674 11.3018 16.1855C11.3509 16.1941 11.3967 16.2201 11.5542 16.2806C11.5542 16.0557 11.5606 15.8875 11.5525 15.72C11.5432 15.5253 11.4371 15.2843 11.5187 15.1446C11.9181 14.4614 11.4807 13.9576 11.2218 13.3867C11.7374 13.3549 12.2253 13.3516 12.7509 13.3516C13.5406 13.374 14.2925 13.3955 15.0445 13.4113C15.3163 13.417 15.4412 13.5589 15.5222 13.8014C15.7305 14.425 15.9989 15.0317 16.171 15.6639C16.2858 16.0854 16.4869 16.2704 16.9229 16.2118ZM14.9236 15.4187C15.1095 15.3436 15.3021 15.2796 15.4741 15.1813C15.4999 15.1665 15.4293 14.991 15.3868 14.8257C15.1923 15.0577 15.0609 15.2143 14.9236 15.4187ZM16.4165 16.35C16.3649 16.368 16.3134 16.3859 16.2619 16.4038C16.2916 16.4357 16.3214 16.4676 16.3511 16.4995C16.3826 16.4597 16.414 16.4199 16.4165 16.35ZM15.5158 16.4062C15.51 16.3419 15.5042 16.2776 15.4984 16.2133C15.4652 16.2212 15.432 16.229 15.3989 16.2369C15.4276 16.3024 15.4563 16.3679 15.5158 16.4062ZM15.7017 15.5499C15.7044 15.565 15.7071 15.5801 15.7099 15.5953C15.7136 15.5804 15.7173 15.5655 15.7017 15.5499Z" fill="#B49275"/>
<path d="M10.3809 7.84006C10.2423 7.94971 10.0936 8.04962 9.96826 8.17224C9.87572 8.26276 9.81357 8.38291 9.73789 8.48985C9.63364 8.38404 9.50673 8.29133 9.4321 8.16838C9.36873 8.06398 9.36568 7.92467 9.33286 7.78794C9.18984 7.79616 9.06911 7.82183 8.9544 7.80599C8.6724 7.76705 8.2567 7.8899 8.45322 7.31476C8.53938 7.0626 8.2361 6.95885 7.98969 6.96178C7.47974 6.96785 6.97002 6.99327 6.4601 6.99729C6.37576 6.99796 6.29085 6.93046 6.18115 6.88533C6.4593 6.62584 6.74416 6.34901 7.07121 6.13307C7.35868 5.94325 7.69641 5.82722 8.00647 5.66843C8.3981 5.46786 8.6022 5.1541 8.68785 4.72047C8.73043 4.50491 8.9033 4.27242 9.08584 4.13354C9.43845 3.86526 9.83971 3.65794 10.2459 3.4009C10.2711 3.37646 10.2787 3.36392 10.2787 3.36392C10.2911 3.3315 10.3035 3.29909 10.3411 3.25732C10.5477 3.75974 10.9516 3.70015 11.3891 3.67315C12.2268 3.62143 13.068 3.62154 13.9079 3.61024C13.9842 3.60921 14.1281 3.68142 14.128 3.71944C14.1275 4.04855 14.3252 4.15431 14.6146 4.21352C14.6916 4.22929 14.7418 4.36997 14.7891 4.46993C14.729 4.47008 14.6841 4.45359 14.6029 4.4339C13.8527 4.42732 13.1386 4.43304 12.4251 4.4164C12.1082 4.40901 11.9511 4.53342 11.8271 4.82101C11.415 5.77602 10.9676 6.71653 10.5102 7.67179C10.4473 7.73101 10.4082 7.78105 10.3735 7.8314C10.378 7.83172 10.3809 7.84006 10.3809 7.84006ZM13.8067 3.89231C13.8421 3.97842 13.8775 4.06452 13.9129 4.15062C13.9566 4.12541 14.0003 4.10019 14.0439 4.07498C13.9747 4.00407 13.9054 3.93317 13.8067 3.89231Z" fill="#B49275"/>
<path d="M24.7773 29.0119C24.8133 29.0119 24.8493 29.0119 24.9482 29.0119C25.4366 29.0489 25.8616 29.0972 26.288 29.1161C26.4157 29.1218 26.5471 29.0451 26.6768 29.0062C26.6353 28.8921 26.5984 28.776 26.5504 28.6645C26.5265 28.6091 26.4822 28.5622 26.3928 28.4326C26.825 28.5025 27.1777 28.5596 27.5242 28.6437C27.4517 28.8761 27.3853 29.0814 27.3189 29.2868C27.0261 29.6084 26.9472 29.9861 27.2166 30.3406C27.4259 30.616 27.4001 30.8655 27.2392 31.1425C26.8709 31.7763 26.8746 31.7783 27.5302 32.0922C27.4706 32.1411 27.4181 32.217 27.35 32.2343C26.9337 32.3398 26.7476 32.6374 26.6322 33.0073C26.3594 33.8812 25.8353 34.5975 25.1607 35.2169C25.0581 35.3111 24.9481 35.3976 24.7835 35.4943C24.4466 35.6052 24.1677 35.7095 23.8888 35.8138C23.9823 35.6586 24.0373 35.4333 24.1762 35.3605C24.7009 35.0854 24.7422 35.0146 24.4271 34.5316C25.0213 34.3955 24.761 33.8478 24.9985 33.4731C24.2421 34.2216 24.0469 33.3543 23.5869 33.1073C23.8466 32.9665 24.0566 32.8533 24.2659 32.739C24.6613 32.5232 24.6721 32.3502 24.3058 32.1151C23.7262 31.7431 23.7745 31.0671 24.4078 30.7399C24.6875 30.5954 24.6216 30.3963 24.5375 30.1706C24.4821 30.0222 24.4721 29.8576 24.47 29.655C24.5912 29.4104 24.6843 29.2112 24.7773 29.0119Z" fill="#B49275"/>
<path d="M27.5568 32.0866C26.8745 31.7784 26.8708 31.7764 27.2391 31.1426C27.4 30.8656 27.4258 30.6161 27.2165 30.3407C26.9471 29.9862 27.026 29.6085 27.3189 29.2869C27.3852 29.0816 27.4516 28.8762 27.5242 28.6241C27.5304 28.5773 27.5305 28.5378 27.5615 28.537C27.8721 28.4173 28.1726 28.3289 28.4211 28.1652C28.5254 28.0964 28.5397 27.8696 28.5511 27.7116C28.5544 27.6662 28.4005 27.5612 28.3259 27.5673C27.9217 27.6008 27.9568 27.3706 28.0309 27.1029C28.0647 27.0741 28.0819 27.0556 28.1308 27.0355C28.3457 27.0234 28.5529 27.0713 28.5725 26.7845C28.5864 26.5804 28.6442 26.3792 28.6902 26.1357C28.6999 26.1401 28.6414 26.1136 28.5839 26.0549C28.6921 25.5847 28.919 25.1364 28.8805 24.711C28.8116 23.9503 28.5829 23.2034 28.421 22.4507C28.4381 22.2504 28.2262 22.0035 28.5599 21.8183C28.628 21.9748 28.6811 22.0969 28.7517 22.2591C28.985 22.0552 28.8561 21.8842 28.787 21.697C28.7137 21.4986 28.4253 21.3371 28.656 21.0511C28.8624 20.761 28.9955 20.9162 29.0389 21.1165C29.1291 21.5322 29.2773 21.9513 28.9855 22.3692C28.8329 22.5879 28.9197 22.6495 29.4527 22.6762C29.1378 23.1919 29.5332 23.5162 29.7668 23.895C29.9209 24.1448 30.0449 24.3917 29.7325 24.66C29.5697 24.7998 29.4874 24.9979 29.6134 25.2874C29.7402 25.5788 29.6604 25.9525 29.6945 26.2878C29.7055 26.3959 29.7908 26.4969 29.8421 26.6011C29.9019 26.4895 30.0071 26.3799 30.0125 26.2659C30.0252 25.9953 29.9905 25.7225 29.9695 25.3534C30.5546 25.8466 30.6347 26.6063 30.2661 27.2004C30.2406 27.2072 30.2145 27.2206 30.1895 27.2189C29.9661 27.2038 29.6887 27.0986 29.5331 27.1906C29.3267 27.3126 29.4235 28.0196 29.6239 28.257C29.5215 28.312 29.4081 28.3454 29.2476 28.3643C29.0992 28.2605 28.998 28.1712 28.8968 28.082C28.8563 28.0769 28.8158 28.0719 28.7753 28.0668C28.8878 28.6041 28.5674 28.7876 28.183 28.9355C28.1177 28.9607 28.0896 29.0853 28.0507 29.1669C28.0124 29.2473 28.0052 29.3784 27.9449 29.4066C27.4183 29.6526 27.6616 30.0589 27.7073 30.4233C27.7428 30.7059 27.7763 30.989 27.8268 31.2692C27.844 31.3644 27.9104 31.4511 27.9543 31.5418C27.8307 31.7215 27.7071 31.9012 27.5568 32.0866ZM29.1409 26.1049C29.1828 26.0638 29.2248 26.0227 29.2667 25.9816C29.2035 25.9535 29.1403 25.9255 29.077 25.8975C29.0842 25.9598 29.0914 26.0221 29.1409 26.1049ZM28.9661 26.58C28.9402 26.5491 28.9143 26.5182 28.8884 26.4873C28.8751 26.5184 28.8618 26.5496 28.8484 26.5808C28.8834 26.5921 28.9183 26.6034 28.9661 26.58Z" fill="#B49275"/>
<path d="M27.9716 31.5099C27.9102 31.4512 27.8438 31.3645 27.8267 31.2692C27.7761 30.9891 27.7426 30.7059 27.7071 30.4234C27.6614 30.0589 27.4182 29.6526 27.9447 29.4066C28.0051 29.3784 28.0122 29.2474 28.0505 29.1669C28.0894 29.0853 28.1175 28.9607 28.1829 28.9356C28.5672 28.7876 28.8877 28.6042 28.7752 28.0669C28.8157 28.0719 28.8561 28.077 28.8966 28.082C28.9978 28.1713 29.0991 28.2605 29.218 28.3698C28.7871 28.8581 28.2979 29.2975 27.9124 29.811C27.7824 29.9843 27.9151 30.3456 27.9306 30.6771C27.9496 30.7897 27.9656 30.8462 27.9817 30.9027C27.9842 31.0944 27.9866 31.2862 27.9716 31.5099Z" fill="#B49275"/>
<path d="M14.9287 17.4721C14.8036 17.4341 14.6733 17.4183 14.6158 17.3467C14.5454 17.2592 14.4785 17.1038 14.5126 17.0154C14.5798 16.8411 14.7176 16.6927 14.8618 16.4814C14.9393 16.8448 14.9971 17.1161 15.058 17.416C15.0259 17.4529 14.9909 17.4613 14.9287 17.4721Z" fill="#B49275"/>
<path d="M23.8697 35.8309C24.1678 35.7094 24.4467 35.6051 24.756 35.499C24.3166 35.7569 23.8468 36.0166 23.3574 36.2514C23.4141 36.1418 23.4903 36.0571 23.5664 35.9724C23.6611 35.931 23.7558 35.8896 23.8697 35.8309Z" fill="#B49275"/>
<path d="M23.5364 35.9596C23.4903 36.0571 23.4141 36.1418 23.3282 36.2485C23.2685 36.2962 23.2187 36.3218 23.1406 36.3471C23.0577 36.3142 22.9986 36.2869 22.9497 36.2477C22.8887 36.1987 22.836 36.1399 22.7798 36.0853C22.8411 36.0263 22.899 35.9216 22.9643 35.917C23.1434 35.9045 23.3255 35.934 23.5364 35.9596Z" fill="#B49275"/>
<path d="M15.6299 17.8203C15.7018 17.824 15.7759 17.8608 15.8603 17.9211C15.8179 18.0177 15.7651 18.0909 15.6899 18.1724C15.6557 18.0717 15.6439 17.9626 15.6299 17.8203Z" fill="#B49275"/>
<path d="M17.4723 4.34025C17.1922 4.45207 17.2747 4.22589 17.2466 4.06396C17.3177 4.12925 17.3888 4.22343 17.4723 4.34025Z" fill="#B49275"/>
<path d="M15.2529 17.4858C15.2819 17.4291 15.3258 17.3918 15.3768 17.3335C15.4369 17.4236 15.4898 17.5347 15.5441 17.6729C15.4529 17.635 15.3604 17.5701 15.2529 17.4858Z" fill="#B49275"/>
<path d="M11.7642 16.5762C11.7858 16.5481 11.8307 16.5257 11.8899 16.5137C11.8653 16.5433 11.8264 16.5626 11.7642 16.5762Z" fill="#B49275"/>
<path d="M27.9868 30.8801C27.9659 30.846 27.9499 30.7895 27.9331 30.7109C27.9522 30.7451 27.9719 30.8014 27.9868 30.8801Z" fill="#B49275"/>
<path d="M22.8604 36.4374C22.8957 36.4154 22.9572 36.391 23.0442 36.3652C23.0086 36.3876 22.9475 36.4113 22.8604 36.4374Z" fill="#B49275"/>
<path d="M29.8297 28.242C29.8204 28.2359 29.855 28.2255 29.8637 28.2231C29.8667 28.2361 29.8556 28.2453 29.8297 28.242Z" fill="#B49275"/>
<path d="M11.1145 16.8184C11.1118 16.8007 11.13 16.7874 11.1648 16.7686C11.1729 16.787 11.1575 16.8069 11.1145 16.8184Z" fill="#B49275"/>
<path d="M10.27 3.35895C10.279 3.36408 10.2713 3.37666 10.2683 3.37867C10.2652 3.38067 10.248 3.36942 10.248 3.36942C10.248 3.36942 10.2611 3.35381 10.27 3.35895Z" fill="#B49275"/>
<path d="M10.4338 3.10743C10.4452 3.10686 10.4284 3.12969 10.4251 3.13581C10.4218 3.14193 10.4077 3.12468 10.4077 3.12468C10.4077 3.12468 10.4225 3.10801 10.4338 3.10743Z" fill="#B49275"/>
<path d="M20.8321 15.426C20.8047 15.3813 20.7823 15.3325 20.749 15.2925C20.6605 15.1863 20.5673 15.0839 20.4759 14.9799C20.4498 15.1107 20.4237 15.2414 20.3891 15.4145C20.2201 15.5179 19.9961 15.6574 19.7695 15.7927C19.589 15.9004 19.4332 15.8942 19.3504 15.6757C19.2632 15.4453 19.1951 15.2077 19.0997 14.9808C19.0475 14.8564 18.9839 14.7018 18.8773 14.6405C18.5842 14.472 18.5981 14.259 18.7033 14.0009C18.7456 13.8972 18.8246 13.7575 18.7869 13.6813C18.5943 13.2917 18.3386 12.9303 18.163 12.5345C17.9539 12.063 17.5915 11.6166 17.7984 11.0504C17.3585 10.825 17.3054 10.5678 17.5264 10.1041C17.5883 9.97418 17.5162 9.78346 17.5056 9.62066C17.3601 9.66983 17.2135 9.71625 17.0695 9.76923C16.9853 9.8002 16.9051 9.84165 16.7925 9.85328C16.7615 9.79325 16.7612 9.75832 16.7819 9.70766C16.9424 9.26677 16.7447 8.78982 16.3543 8.5881C16.2676 8.47497 16.1838 8.38973 16.086 8.28659C16.0583 8.22615 16.0444 8.18362 16.0454 8.11841C16.0069 7.83007 16.0016 7.5435 15.8916 7.30246C15.4783 6.39675 15.0987 5.48265 14.8975 4.50635C15.2895 4.70507 15.6671 4.90691 15.6356 5.43678C15.6297 5.53489 15.7086 5.67272 15.7927 5.73483C16.12 5.97634 16.4888 6.16862 16.7946 6.43186C16.9681 6.58125 17.0493 6.8328 17.1874 7.06392C17.0602 7.132 16.9477 7.1551 16.9128 7.21876C16.8435 7.34529 16.7881 7.49434 16.7891 7.63367C16.7894 7.67925 16.9799 7.75377 17.0876 7.7618C17.2839 7.77643 17.4832 7.75126 17.731 7.74056C17.8965 7.86447 17.7044 8.49239 18.2782 8.17789C18.3956 8.32563 18.5021 8.45958 18.6173 8.60449C18.8869 8.393 18.52 7.84016 19.107 7.87842C19.0573 8.08347 18.9888 8.262 18.9753 8.4444C18.9502 8.78463 18.9207 9.12507 19.357 9.29956C19.4744 9.34651 19.5155 9.57542 19.6301 9.79445C19.8508 9.60515 20.0623 9.42374 20.3846 9.14734C20.3564 9.4005 20.3386 9.56111 20.3181 9.7452C20.4156 9.73269 20.5285 9.71821 20.7885 9.68485C20.6689 9.93734 20.5854 10.1135 20.5019 10.2896C20.4582 10.2861 20.4144 10.2826 20.3706 10.279C20.5929 10.6133 20.8247 10.942 21.0298 11.2859C21.0753 11.3622 21.0572 11.5073 21.0126 11.5931C20.9627 11.6891 20.8494 11.7536 20.7403 11.8532C20.8746 11.9764 20.9863 12.0789 21.1257 12.2068C20.9889 12.2912 20.8772 12.3602 20.6844 12.4792C21.3686 12.5236 21.3703 12.9516 21.3439 13.4257C21.4672 13.3675 21.5479 13.3328 21.6253 13.2922C21.8038 13.1985 21.9354 13.1731 22.0385 13.4107C22.0862 13.5205 22.2575 13.5792 22.4469 13.7138C22.4773 13.9504 22.8763 14.2317 23.249 14.0901C23.6573 13.9349 23.8159 14.1067 23.8851 14.4335C24.0246 15.0929 24.9173 15.1611 25.247 15.0329C25.7066 15.2285 26.1149 15.3237 26.417 15.5525C26.731 15.7905 26.9424 16.1577 27.1745 16.4889C26.9181 16.3123 26.7027 16.0914 26.4506 15.9225C25.5654 15.3292 24.5547 15.1528 23.5046 15.095C22.5896 15.0446 21.7084 15.2048 20.8321 15.426ZM21.7109 14.3498C21.8062 14.3119 21.9014 14.274 21.9966 14.236C21.9598 14.1574 21.943 14.0492 21.8804 14.0087C21.8231 13.9717 21.7161 14.0081 21.6311 14.0121C21.6418 14.1145 21.6525 14.2169 21.7109 14.3498ZM23.1021 14.5049C23.1359 14.7547 23.2917 14.6809 23.413 14.5972C23.4663 14.5604 23.4669 14.4508 23.4914 14.3742C23.3667 14.4001 23.2421 14.4261 23.1021 14.5049ZM20.8764 13.3347C20.8996 13.2126 20.9228 13.0904 20.9459 12.9683C20.8819 12.9694 20.8179 12.9705 20.7539 12.9716C20.7805 13.0999 20.8071 13.2281 20.8764 13.3347Z" fill="#B49275"/>
<path d="M28.0976 27.0356C28.0821 27.0556 28.0649 27.074 28.0031 27.1088C27.6543 27.2297 27.5024 27.3487 27.8195 27.6405C27.9965 27.8034 28.1332 28.0265 27.7573 28.1898C27.6501 28.2364 27.6046 28.418 27.5308 28.5377C27.5308 28.5377 27.5307 28.5772 27.5306 28.5969C27.1779 28.5596 26.8252 28.5026 26.393 28.4327C26.4825 28.5622 26.5268 28.6092 26.5506 28.6646C26.5986 28.776 26.6355 28.8921 26.677 29.0063C26.5473 29.0452 26.4159 29.1218 26.2883 29.1162C25.8619 29.0973 25.4368 29.049 24.9754 29.0119C25.0786 28.8412 25.2176 28.6706 25.3717 28.4631C25.539 28.3603 25.6912 28.2944 25.8735 28.2259C26.2076 28.0871 26.5422 27.9933 26.8104 27.8078C28.4188 26.696 29.0053 24.4198 28.126 22.684C27.601 21.6474 26.6957 21.018 25.6006 20.6577C24.5178 20.3014 23.4038 20.0325 22.331 19.6515C21.8969 19.4972 21.5356 19.1474 21.1346 18.8567C21.1001 18.6621 21.0723 18.4973 21.0522 18.3051C21.2427 18.045 21.3902 17.7709 21.6153 17.5878C22.1175 17.179 22.7443 17.2213 23.3516 17.2281C24.512 17.2411 25.0871 17.6491 25.4164 18.7248C25.4919 18.9715 25.6201 19.0656 25.8752 19.0603C26.3999 19.0496 26.925 19.0557 27.4499 19.0549C27.3194 19.2241 27.1889 19.3933 27.0408 19.5852C27.3113 19.9448 27.1599 20.3598 27.0431 20.7818C27.0127 20.8918 27.0192 21.0686 27.0889 21.1379C27.3582 21.4057 27.6712 21.6312 27.9454 21.8949C28.1083 22.0517 28.229 22.2503 28.395 22.4403C28.5832 23.2033 28.8119 23.9502 28.8808 24.7109C28.9193 25.1363 28.6924 25.5846 28.5589 26.0656C28.3877 26.4177 28.2426 26.7266 28.0976 27.0356Z" fill="#B49275"/>
<path d="M27.4849 19.0524C26.9246 19.0558 26.3995 19.0496 25.8748 19.0604C25.6197 19.0657 25.4915 18.9716 25.416 18.7249C25.0867 17.6491 24.5116 17.2412 23.3513 17.2282C22.7439 17.2214 22.1171 17.1791 21.6149 17.5878C21.3898 17.771 21.2423 18.0451 21.0374 18.2808C21.0868 18.0475 21.0856 17.7259 21.2468 17.5947C21.5094 17.3811 21.883 17.3011 22.1996 17.145C22.311 17.0901 22.3924 16.9771 22.4874 16.8906C22.3821 16.8076 22.2875 16.7011 22.1681 16.6487C22.0702 16.6058 21.9426 16.6273 21.7525 16.6156C22.4751 16.0533 22.4751 16.0533 22.1787 15.2821C22.024 15.3366 21.8664 15.3879 21.7122 15.4475C21.5014 15.529 21.2905 15.6939 21.0845 15.6869C20.5504 15.6687 20.2471 16.0237 19.8756 16.2818C19.7695 16.3554 19.6348 16.3896 19.5132 16.4419C19.845 16.0007 20.2574 15.6592 20.8087 15.4432C21.7085 15.205 22.5896 15.0448 23.5047 15.0952C24.5548 15.153 25.5655 15.3294 26.4507 15.9227C26.7027 16.0916 26.9182 16.3126 27.176 16.5178C27.2015 16.526 27.2041 16.5251 27.2149 16.5397C27.2425 16.5735 27.2624 16.589 27.2852 16.6009C27.2852 16.6009 27.2852 16.6025 27.2918 16.6294C27.426 16.8514 27.5536 17.0464 27.6813 17.2414C27.8043 17.6286 27.9513 18.0104 28.0447 18.4042C28.1815 18.9804 28.1259 19.0319 27.4849 19.0524Z" fill="#B49275"/>
<path d="M14.878 4.50651C15.0992 5.48303 15.4787 6.39713 15.892 7.30285C16.002 7.54388 16.0073 7.83046 16.0322 8.09448C15.549 6.87439 15.0943 5.65595 14.6396 4.4375C14.6845 4.45399 14.7294 4.47048 14.7962 4.49637C14.8182 4.50578 14.8581 4.50629 14.878 4.50651Z" fill="#B49275"/>
<path d="M26.4375 12.3986C26.4969 12.1904 26.5774 11.9963 26.6578 11.8022C26.7121 11.8142 26.7664 11.8262 26.8208 11.8382C26.81 12.0508 26.7992 12.2634 26.7856 12.5321C26.6429 12.4801 26.5507 12.4464 26.4375 12.3986Z" fill="#B49275"/>
<path d="M25.3362 11.6616C25.3672 11.7656 25.3729 11.8667 25.3787 11.9678C25.3172 11.9664 25.2558 11.965 25.1943 11.9636C25.2332 11.862 25.272 11.7603 25.3362 11.6616Z" fill="#B49275"/>
<path d="M27.6973 17.2196C27.5537 17.0463 27.4261 16.8513 27.2925 16.6299C27.5367 16.7277 27.7711 16.8628 27.6973 17.2196Z" fill="#B49275"/>
<path d="M28.5342 18.2024C28.5001 18.2433 28.4609 18.2651 28.4218 18.2869C28.4125 18.2521 28.4033 18.2174 28.394 18.1826C28.4391 18.1828 28.4841 18.183 28.5342 18.2024Z" fill="#B49275"/>
<path d="M21.9171 8.26221C21.8917 8.23958 21.8812 8.21319 21.8706 8.18679C21.8828 8.18363 21.9051 8.17668 21.9056 8.17787C21.9158 8.20419 21.9237 8.2314 21.9171 8.26221Z" fill="#B49275"/>
<path d="M24.6064 9.64313C24.6389 9.62812 24.6708 9.62778 24.7027 9.62744C24.7022 9.63945 24.7017 9.65146 24.7013 9.66347C24.6695 9.66158 24.6377 9.65969 24.6064 9.64313Z" fill="#B49275"/>
<path d="M21.5293 7.52583C21.514 7.4966 21.5123 7.46852 21.5107 7.44043C21.5218 7.44139 21.5425 7.44181 21.5426 7.44338C21.5442 7.47116 21.5433 7.49908 21.5293 7.52583Z" fill="#B49275"/>
<path d="M22.9009 9.38867C22.9161 9.39562 22.9241 9.40884 22.9322 9.42206C22.9194 9.41302 22.9066 9.40398 22.9009 9.38867Z" fill="#B49275"/>
<path d="M27.2731 16.5864C27.2623 16.5888 27.2425 16.5733 27.2148 16.5386C27.2248 16.5375 27.2438 16.5538 27.2731 16.5864Z" fill="#B49275"/>
<path d="M24.7701 28.9862C24.6843 29.2111 24.5913 29.4104 24.476 29.627C24.3358 29.5693 24.2181 29.4943 24.0745 29.4132C23.9651 29.0487 24.3039 28.9997 24.4953 28.8544C24.5333 28.8255 24.671 28.922 24.7701 28.9862Z" fill="#B49275"/>
<path d="M22.4471 29.603C22.3564 29.56 22.289 29.5063 22.2217 29.4527C22.286 29.4211 22.3502 29.3895 22.4145 29.3579C22.4332 29.4361 22.4519 29.5142 22.4471 29.603Z" fill="#B49275"/>
<path d="M23.2092 29.9016C23.1803 29.8737 23.1673 29.8398 23.1543 29.8058C23.1868 29.804 23.2193 29.8021 23.2518 29.8003C23.2429 29.832 23.2339 29.8638 23.2092 29.9016Z" fill="#B49275"/>
<path d="M23.6201 30.274C23.6357 30.2682 23.651 30.2719 23.6662 30.2755C23.6507 30.2782 23.6352 30.2808 23.6201 30.274Z" fill="#B49275"/>
<path d="M15.75 18.3801C15.7484 18.3807 15.7515 18.3795 15.75 18.3801V18.3801Z" fill="#B49275"/>
<path d="M14.603 4.43432C15.094 5.65596 15.5486 6.87441 16.017 8.11717C16.0445 8.18402 16.0584 8.22655 16.0907 8.31709C16.2681 8.76802 16.4271 9.17095 16.5886 9.59875C16.5975 9.65636 16.6039 9.6891 16.6109 9.75025C16.6614 9.9144 16.7112 10.0501 16.761 10.1859C16.829 10.3857 16.897 10.5856 16.9859 10.8384C17.2249 11.5037 17.4429 12.116 17.6289 12.7273C17.4811 12.6409 17.3576 12.5636 17.2527 12.4669C17.1987 12.4171 17.1838 12.3293 17.1412 12.2649C16.9456 11.9689 16.7359 11.6811 16.5566 11.3762C16.515 11.3056 16.5366 11.1515 16.5913 11.0835C16.8037 10.8197 16.7024 10.6689 16.4219 10.595C16.1285 10.5177 16.0997 10.3655 16.2238 10.1277C16.3403 9.90453 16.3645 9.69289 16.1874 9.46745C16.0721 9.32067 15.9986 9.13242 15.9448 8.95183C15.8195 8.53132 15.5498 8.35125 15.2047 8.51291C15.0971 8.5633 15.0311 8.69849 14.9371 8.80508C14.8935 8.74935 14.8603 8.72254 14.8478 8.68848C14.7118 8.31796 14.486 8.2049 14.1233 8.33858C13.7248 8.48542 13.9402 8.72253 14.0315 8.9452C14.0711 9.04171 14.0768 9.15164 14.1175 9.24751C14.2506 9.5609 14.352 9.92851 14.7766 9.73348C14.7323 10.2121 14.6881 10.6909 14.6273 11.1454C14.1452 9.8386 13.6796 8.55616 13.2141 7.27372C13.1778 7.27304 13.1416 7.27236 13.1053 7.27168C12.8159 7.932 12.5265 8.59233 12.2146 9.244C12.2085 8.97967 12.159 8.69763 12.2534 8.4732C12.5646 7.73263 12.4685 7.25992 11.7618 6.67222C11.7354 6.92677 11.7134 7.13993 11.6872 7.39321C11.407 7.16679 11.176 7.21113 10.9957 7.43951C10.8672 7.60219 10.7912 7.80409 10.6641 7.96806C10.5276 8.14417 10.3588 8.2964 10.2041 8.45904C10.2609 8.27221 10.3176 8.08538 10.3777 7.86951C10.381 7.84047 10.378 7.83213 10.3987 7.82642C10.4576 7.76814 10.4957 7.71558 10.5339 7.66301C10.9677 6.71694 11.415 5.77644 11.8271 4.82142C11.9512 4.53383 12.1082 4.40942 12.4251 4.41681C13.1387 4.43346 13.8528 4.42774 14.603 4.43432Z" fill="#B49275"/>
<path d="M12.7131 13.3481C12.2253 13.3513 11.7374 13.3545 11.2117 13.3602C10.9801 13.36 10.7863 13.3574 10.5243 13.3563C10.0532 13.378 9.81455 13.183 9.72781 12.7355C9.59203 12.9964 9.42831 13.181 9.4082 13.3795C9.37641 13.6933 9.14147 13.7807 8.93192 13.8406C8.80541 13.8767 8.6256 13.7352 8.55176 13.7059C8.7182 13.5355 8.9182 13.42 8.9611 13.2635C9.01192 13.0781 8.93576 12.8558 8.89926 12.6522C8.85624 12.4122 8.79673 12.1751 8.74422 11.9086C8.74295 11.843 8.74184 11.8055 8.74073 11.7679C8.74073 11.7679 8.74479 11.7331 8.77178 11.7102C8.8303 11.6087 8.86182 11.53 8.89334 11.4513C8.91026 11.4117 8.92718 11.372 8.98583 11.3079C9.30196 10.9933 9.62752 10.7554 9.62671 10.2781C9.6264 10.1001 9.92198 9.75524 10.0221 9.77525C10.31 9.83282 10.623 9.98719 10.8221 10.1975C11.0768 10.4664 11.2298 10.8271 11.4266 11.1742C11.4504 11.2636 11.4742 11.3272 11.5213 11.409C11.7507 11.4571 11.9569 11.4858 12.1626 11.5174C12.2875 11.5365 12.4269 11.5323 12.5331 11.5876C12.7631 11.7073 12.9639 11.884 13.1992 11.9897C13.4455 12.1003 13.4531 12.1674 13.2853 12.3823C13.0562 12.6757 12.9004 13.0235 12.7131 13.3481ZM9.9588 12.7182C10.0819 12.7036 10.205 12.6891 10.328 12.6745C10.3042 12.611 10.2804 12.5475 10.2565 12.4839C10.1514 12.5469 10.0463 12.61 9.9588 12.7182ZM10.705 10.5944C10.651 10.6643 10.597 10.7342 10.5429 10.8042C10.5753 10.8239 10.6077 10.8437 10.6401 10.8635C10.6703 10.8455 10.7208 10.8323 10.7268 10.8085C10.7413 10.7513 10.7349 10.6891 10.705 10.5944ZM12.7717 12.5514C12.7369 12.5405 12.7021 12.5295 12.6673 12.5186C12.6674 12.553 12.6675 12.5874 12.6676 12.6219C12.7023 12.6104 12.737 12.599 12.7717 12.5514Z" fill="#B49275"/>
<path d="M8.74425 11.9368C8.79661 12.1751 8.85611 12.4123 8.89913 12.6522C8.93564 12.8559 9.0118 13.0781 8.96097 13.2635C8.91807 13.42 8.71807 13.5355 8.55163 13.706C8.62548 13.7352 8.80528 13.8768 8.9318 13.8406C9.14134 13.7807 9.37628 13.6933 9.40808 13.3795C9.42818 13.181 9.59191 12.9965 9.72768 12.7356C9.81443 13.183 10.053 13.378 10.4878 13.3574C10.2913 13.885 10.0572 14.4106 9.83664 14.9416C9.70677 15.2542 9.61267 15.5816 9.47224 15.8892C9.42718 15.9879 9.28474 16.1107 9.18792 16.1098C8.4127 16.1028 7.63774 16.0688 6.75928 16.0395C7.40501 14.6226 8.00883 13.2976 8.65489 11.9537C8.71283 11.9355 8.72854 11.9361 8.74425 11.9368Z" fill="#B49275"/>
<path d="M11.4268 11.1483C11.23 10.8272 11.0769 10.4665 10.8223 10.1976C10.6232 9.98729 10.3101 9.83291 10.0222 9.77535C9.92211 9.75533 9.62653 10.1002 9.62684 10.2782C9.62765 10.7555 9.30209 10.9934 9.00098 11.2921C9.37498 10.3692 9.77569 9.43792 10.1904 8.48265C10.3591 8.29605 10.5279 8.14382 10.6644 7.96772C10.7914 7.80374 10.8675 7.60184 10.9959 7.43916C11.1763 7.21078 11.4073 7.16644 11.6875 7.39287C11.7137 7.13958 11.7357 6.92642 11.762 6.67188C12.4688 7.25957 12.5649 7.73228 12.2536 8.47285C12.1593 8.69729 12.2088 8.97933 12.2084 9.27224C11.9586 9.92244 11.6927 10.5354 11.4268 11.1483Z" fill="#B49275"/>
<path d="M8.02009 7.4745C7.9797 7.42317 7.96031 7.37467 7.94092 7.32617C7.98774 7.33038 8.03455 7.33459 8.08137 7.33881C8.06795 7.38498 8.05452 7.43116 8.02009 7.4745Z" fill="#B49275"/>
<path d="M8.87407 11.4673C8.86187 11.5301 8.83035 11.6088 8.77588 11.6933C8.78687 11.6271 8.82081 11.5551 8.87407 11.4673Z" fill="#B49275"/>
<path d="M10.3632 16.2141C10.3479 16.1824 10.3475 16.1512 10.3472 16.1201C10.3595 16.1206 10.3718 16.121 10.3841 16.1215C10.3821 16.1525 10.3802 16.1836 10.3632 16.2141Z" fill="#B49275"/>
<path d="M9.09244 8.30311C9.07684 8.3089 9.06161 8.30527 9.04639 8.30164C9.06186 8.29899 9.07734 8.29634 9.09244 8.30311Z" fill="#B49275"/>
<path d="M10.2861 16.6567C10.2921 16.672 10.2883 16.6869 10.2846 16.7017C10.2819 16.6866 10.2792 16.6715 10.2861 16.6567Z" fill="#B49275"/>
<path d="M8.74445 11.9089C8.7289 11.9364 8.71319 11.9357 8.67384 11.9338C8.66989 11.8897 8.68959 11.8469 8.72512 11.7861C8.74207 11.8057 8.74318 11.8433 8.74445 11.9089Z" fill="#B49275"/>
<path d="M21.1411 18.8867C21.5355 19.1475 21.8968 19.4974 22.3309 19.6516C23.4037 20.0327 24.5177 20.3016 25.6005 20.6579C26.6956 21.0182 27.6009 21.6476 28.1259 22.6842C29.0052 24.42 28.4187 26.6961 26.8103 27.808C26.5421 27.9934 26.2075 28.0873 25.8384 28.2245C25.1226 28.3153 24.4716 28.4021 23.8216 28.4955C23.3702 28.5604 22.9762 28.424 22.6315 28.1576C22.5684 28.1088 22.5386 27.9197 22.5835 27.855C22.7494 27.6158 22.9531 27.4016 23.1651 27.1515C23.01 27.1584 22.8703 27.1647 22.7411 27.1705C22.5826 27.5707 22.5826 27.5707 22.2564 27.4624C22.6638 27.1055 22.5747 26.6653 22.5055 26.2281C23.0193 26.2312 23.533 26.2342 24.1138 26.2269C24.2849 26.1906 24.3887 26.1638 24.4932 26.1393C25.6275 25.8731 26.4289 24.3638 25.3261 23.4002C25.29 23.363 25.2667 23.3442 25.2279 23.325C25.2124 23.3246 25.182 23.319 25.1718 23.2938C24.5685 23.0289 23.9768 22.7856 23.3798 22.5552C23.3221 22.5329 23.2321 22.5903 23.1316 22.6078C23.0425 22.5814 22.9789 22.5579 22.9043 22.5076C22.7469 22.4177 22.5955 22.3637 22.4557 22.2891C22.3321 22.2231 22.2214 22.1341 22.0982 22.0244C22.0454 21.4163 21.9992 20.8391 21.9497 20.2197C22.1021 20.2081 22.2736 20.195 22.4771 20.1795C22.3673 19.6818 21.9566 19.8311 21.6624 19.7663C21.7397 19.687 21.817 19.6078 21.8942 19.5286C21.6934 19.4554 21.4671 19.416 21.3012 19.2965C21.1998 19.2235 21.1913 19.0275 21.1411 18.8867Z" fill="#B49275"/>
<path d="M12.7508 13.3514C12.9002 13.0237 13.0561 12.6758 13.2852 12.3824C13.453 12.1675 13.4453 12.1005 13.199 11.9899C12.9638 11.8842 12.763 11.7074 12.5329 11.5877C12.4268 11.5325 12.2874 11.5367 12.1625 11.5175C11.9567 11.4859 11.7505 11.4573 11.5591 11.4071C12.4672 11.3873 13.3609 11.3966 14.2541 11.3784C14.3854 11.3757 14.5139 11.2423 14.6438 11.1694C14.688 10.6906 14.7323 10.2118 14.7766 9.73319C14.352 9.92822 14.2506 9.56061 14.1175 9.24722C14.0768 9.15135 14.0711 9.04142 14.0315 8.94491C13.9402 8.72224 13.7248 8.48512 14.1232 8.33829C14.486 8.2046 14.7118 8.31767 14.8478 8.68819C14.8603 8.72225 14.8935 8.74906 14.9371 8.80479C15.0311 8.6982 15.0971 8.56301 15.2047 8.51262C15.5498 8.35096 15.8195 8.53103 15.9447 8.95153C15.9985 9.13213 16.0721 9.32037 16.1874 9.46716C16.3645 9.6926 16.3403 9.90423 16.2238 10.1274C16.0996 10.3652 16.1285 10.5174 16.4219 10.5947C16.7024 10.6687 16.8036 10.8194 16.5913 11.0832C16.5366 11.1512 16.515 11.3053 16.5566 11.3759C16.7359 11.6808 16.9456 11.9686 17.1412 12.2646C17.1838 12.329 17.1987 12.4168 17.2527 12.4666C17.3575 12.5633 17.4811 12.6406 17.6431 12.7488C17.7824 12.9191 17.8755 13.0665 17.9686 13.2139C17.9686 13.2139 17.9706 13.2481 17.9772 13.2905C18.0329 13.4218 18.0819 13.5107 18.1309 13.5996C18.1309 13.5996 18.1347 13.5974 18.1328 13.6268C18.1585 13.7443 18.1861 13.8325 18.2137 13.9206C18.4267 14.5418 18.634 15.165 18.8548 15.7835C19.0094 16.2167 18.9605 16.298 18.4844 16.2817C17.9887 16.2647 17.4936 16.2323 16.9605 16.2092C16.4868 16.2702 16.2857 16.0852 16.1709 15.6637C15.9987 15.0315 15.7304 14.4249 15.5221 13.8012C15.4411 13.5588 15.3161 13.4168 15.0444 13.4111C14.2924 13.3953 13.5405 13.3738 12.7508 13.3514ZM15.4038 9.13706C15.3542 9.1083 15.3045 9.07953 15.2549 9.05076C15.2399 9.08066 15.2249 9.11056 15.2099 9.14046C15.2722 9.15256 15.3345 9.16466 15.4038 9.13706Z" fill="#B49275"/>
<path d="M21.1344 18.8569C21.1913 19.0275 21.1998 19.2235 21.3012 19.2966C21.467 19.416 21.6934 19.4554 21.8942 19.5286C21.8169 19.6078 21.7396 19.6871 21.6623 19.7663C21.9566 19.8312 22.3672 19.6819 22.477 20.1795C22.2735 20.195 22.102 20.2081 21.9497 20.2197C21.9992 20.8392 22.0453 21.4164 22.0677 22.0244C21.9294 22.0289 21.815 22.0028 21.6912 21.9523C21.5801 21.865 21.4782 21.8021 21.344 21.7392C21.2253 21.7392 21.1389 21.7392 21.0349 21.725C20.9751 21.6939 20.933 21.6771 20.86 21.6595C20.5515 21.5544 20.2739 21.4501 19.9962 21.3459C19.9499 21.3089 19.9035 21.272 19.8429 21.1875C19.7462 21.0779 19.6637 21.0158 19.5812 20.9537C18.3362 19.8556 18.2777 17.5574 19.4903 16.4559C19.635 16.3897 19.7697 16.3555 19.8758 16.2819C20.2473 16.0238 20.5506 15.6688 21.0847 15.687C21.2907 15.694 21.5016 15.5291 21.7124 15.4476C21.8666 15.388 22.0242 15.3367 22.1789 15.2822C22.4753 16.0534 22.4753 16.0534 21.7527 16.6157C21.9429 16.6274 22.0704 16.6059 22.1683 16.6489C22.2878 16.7012 22.3823 16.8077 22.4877 16.8908C22.3926 16.9772 22.3112 17.0902 22.1998 17.1452C21.8832 17.3013 21.5096 17.3812 21.247 17.5948C21.0858 17.726 21.087 18.0476 21.0298 18.3082C21.0721 18.4975 21.0999 18.6623 21.1344 18.8569ZM21.9694 15.5873C21.93 15.6811 21.8906 15.775 21.8512 15.8688C21.9096 15.8747 21.968 15.8806 22.0264 15.8865C22.0249 15.7876 22.0235 15.6886 21.9694 15.5873Z" fill="#B49275"/>
<path d="M22.4805 26.2186C22.5744 26.6654 22.6635 27.1055 22.2561 27.4624C22.5823 27.5707 22.5823 27.5707 22.7408 27.1705C22.87 27.1647 23.0097 27.1585 23.1649 27.1515C22.9528 27.4017 22.7491 27.6159 22.5832 27.855C22.5383 27.9198 22.5681 28.1089 22.6312 28.1576C22.9759 28.4241 23.3699 28.5604 23.8213 28.4956C24.4713 28.4021 25.1223 28.3153 25.8079 28.2272C25.6908 28.2946 25.5386 28.3605 25.3633 28.4417C24.0412 28.6928 22.7476 28.6992 21.4596 28.3786C20.1838 28.0612 19.224 27.3086 18.6374 26.1946C18.3202 25.5923 18.2331 24.8706 18.0788 24.1948C18.0578 24.1028 18.2376 23.8764 18.3456 23.8619C19.0106 23.7724 19.6812 23.7177 20.3516 23.6773C20.4188 23.6733 20.5384 23.8332 20.5634 23.9337C20.7382 24.6378 20.9961 25.2951 21.6245 25.736C21.8837 25.9179 22.1776 26.0527 22.4805 26.2186Z" fill="#B49275"/>
<path d="M25.3386 23.4186C26.4287 24.3637 25.6273 25.8731 24.493 26.1393C24.3885 26.1638 24.2847 26.1906 24.1507 26.2223C23.9048 26.2074 23.6889 26.1857 23.4728 26.1657C23.1611 26.1368 22.7747 26.2083 22.8686 25.6782C22.8786 25.6219 22.7064 25.4949 22.6009 25.4685C22.4487 25.4304 22.2795 25.4633 22.119 25.4499C21.8734 25.4293 21.6374 25.4007 21.7913 25.0475C21.8198 24.982 21.7284 24.867 21.693 24.7745C21.6525 24.6689 21.5682 24.5571 21.5819 24.4584C21.6125 24.2373 21.5271 24.1527 21.3188 24.1011C21.1171 24.0511 20.8622 23.3641 20.9767 23.2047C21.018 23.1473 21.1167 23.1323 21.1704 23.0796C21.2472 23.0041 21.3067 22.9117 21.375 22.7967C21.7369 22.6861 22.0974 22.6054 22.5252 22.5234C22.7001 22.5263 22.8076 22.5304 22.9151 22.5344C22.9787 22.5579 23.0423 22.5813 23.1551 22.6237C23.8635 22.8681 24.5226 23.0935 25.1818 23.3189C25.1818 23.3189 25.2122 23.3246 25.2419 23.3423C25.2938 23.3795 25.3162 23.399 25.3386 23.4186Z" fill="#B49275"/>
<path d="M22.904 22.5074C22.8076 22.5303 22.7001 22.5262 22.561 22.5217C21.9189 22.303 21.2999 22.1043 20.7019 21.8572C20.4539 21.7547 20.2509 21.5486 20.0117 21.3677C20.2737 21.45 20.5513 21.5543 20.8656 21.6777C20.9523 21.7109 21.0024 21.725 21.0524 21.739C21.1388 21.7391 21.2251 21.7391 21.3514 21.7652C21.4943 21.853 21.5973 21.9148 21.7003 21.9765C21.8148 22.0026 21.9293 22.0288 22.0743 22.055C22.2212 22.134 22.3319 22.2229 22.4555 22.2889C22.5953 22.3636 22.7467 22.4176 22.904 22.5074Z" fill="#B49275"/>
<path d="M21.382 22.7397C20.98 22.6166 20.5837 22.4663 20.1108 22.287C20.532 21.9345 20.8407 22.1182 21.1349 22.2269C21.3473 22.3055 21.5021 22.4524 21.382 22.7397Z" fill="#B49275"/>
<path d="M17.968 13.1816C17.8756 13.0665 17.7825 12.919 17.6752 12.7498C17.4429 12.1156 17.2249 11.5033 17.0034 10.8613C17.1432 11.0434 17.3328 11.2385 17.4204 11.4703C17.6284 12.0207 17.7881 12.5885 17.968 13.1816Z" fill="#B49275"/>
<path d="M21.003 28.4269C21.0996 28.4832 21.17 28.5294 21.2554 28.5853C20.6946 28.865 20.4306 28.8005 20.3608 28.3257C20.5786 28.3579 20.7778 28.3873 21.003 28.4269Z" fill="#B49275"/>
<path d="M16.7615 10.1555C16.7115 10.0501 16.6617 9.91435 16.6362 9.75054C16.6941 9.72289 16.7277 9.72331 16.7613 9.72374C16.7615 9.75867 16.7618 9.79359 16.7626 9.8547C16.7626 9.96231 16.7621 10.0437 16.7615 10.1555Z" fill="#B49275"/>
<path d="M19.5923 20.9761C19.6635 21.0155 19.746 21.0776 19.8306 21.1685C19.7564 21.1311 19.68 21.0649 19.5923 20.9761Z" fill="#B49275"/>
<path d="M18.1315 13.5717C18.0819 13.511 18.0329 13.422 17.98 13.3076C18.0281 13.3692 18.0802 13.4564 18.1315 13.5717Z" fill="#B49275"/>
<path d="M18.2144 13.8919C18.1861 13.8325 18.1585 13.7444 18.1313 13.6279C18.1596 13.6875 18.1873 13.7753 18.2144 13.8919Z" fill="#B49275"/>
<path d="M14.9268 15.3948C15.0611 15.2143 15.1924 15.0577 15.387 14.8257C15.4295 14.991 15.5001 15.1665 15.4742 15.1813C15.3022 15.2796 15.1096 15.3436 14.9268 15.3948Z" fill="#B49275"/>
<path d="M16.4308 16.3647C16.4138 16.4196 16.3824 16.4594 16.351 16.4992C16.3212 16.4673 16.2915 16.4354 16.2617 16.4035C16.3132 16.3856 16.3648 16.3676 16.4308 16.3647Z" fill="#B49275"/>
<path d="M15.5005 16.4198C15.4563 16.3679 15.4276 16.3024 15.3989 16.2369C15.4321 16.2291 15.4653 16.2212 15.4985 16.2134C15.5043 16.2777 15.5101 16.3419 15.5005 16.4198Z" fill="#B49275"/>
<path d="M15.7114 15.5503C15.7174 15.5655 15.7136 15.5804 15.7099 15.5953C15.7072 15.5802 15.7045 15.565 15.7114 15.5503Z" fill="#B49275"/>
<path d="M13.8218 3.87744C13.9058 3.93332 13.975 4.00422 14.0443 4.07513C14.0006 4.10034 13.9569 4.12556 13.9132 4.15078C13.8778 4.06467 13.8424 3.97857 13.8218 3.87744Z" fill="#B49275"/>
<path d="M10.5105 7.67188C10.496 7.71525 10.4579 7.76781 10.3945 7.82577C10.4085 7.78114 10.4477 7.7311 10.5105 7.67188Z" fill="#B49275"/>
<path d="M27.5615 28.5368C27.6043 28.4179 27.6498 28.2362 27.757 28.1897C28.1329 28.0263 27.9962 27.8032 27.8192 27.6403C27.5021 27.3486 27.6541 27.2296 27.9881 27.1206C27.9568 27.3704 27.9217 27.6005 28.3259 27.5671C28.4005 27.5609 28.5544 27.6659 28.5511 27.7113C28.5397 27.8693 28.5254 28.0961 28.4211 28.1649C28.1726 28.3287 27.8721 28.4171 27.5615 28.5368Z" fill="#B49275"/>
<path d="M28.1309 27.0357C28.2424 26.7269 28.3875 26.4179 28.5577 26.0981C28.6414 26.1138 28.6999 26.1403 28.6902 26.1359C28.6442 26.3794 28.5864 26.5806 28.5725 26.7846C28.5529 27.0715 28.3458 27.0236 28.1309 27.0357Z" fill="#B49275"/>
<path d="M29.1199 26.0946C29.0915 26.022 29.0843 25.9598 29.0771 25.8975C29.1404 25.9255 29.2036 25.9535 29.2669 25.9815C29.2249 26.0226 29.183 26.0637 29.1199 26.0946Z" fill="#B49275"/>
<path d="M28.9599 26.5974C28.9185 26.6034 28.8836 26.5921 28.8486 26.5808C28.8619 26.5497 28.8753 26.5185 28.8886 26.4873C28.9145 26.5182 28.9404 26.5492 28.9599 26.5974Z" fill="#B49275"/>
<path d="M16.7823 9.70788C16.7278 9.72318 16.6942 9.72276 16.6356 9.72199C16.6042 9.68891 16.5979 9.65617 16.6033 9.57711C16.5292 9.22592 16.4433 8.92107 16.3574 8.61621C16.7452 8.79004 16.9428 9.26698 16.7823 9.70788Z" fill="#B49275"/>
<path d="M16.3543 8.58846C16.4429 8.92122 16.5288 9.22607 16.6003 9.55238C16.427 9.17091 16.268 8.76798 16.1045 8.33496C16.1838 8.3901 16.2677 8.47533 16.3543 8.58846Z" fill="#B49275"/>
<path d="M21.6873 14.3345C21.6528 14.2168 21.6421 14.1144 21.6313 14.012C21.7164 14.008 21.8233 13.9717 21.8806 14.0086C21.9433 14.0491 21.9601 14.1573 21.9969 14.236C21.9017 14.2739 21.8064 14.3118 21.6873 14.3345Z" fill="#B49275"/>
<path d="M23.1099 14.4788C23.2422 14.4264 23.3669 14.4005 23.4916 14.3745C23.467 14.4511 23.4664 14.5607 23.4131 14.5976C23.2918 14.6812 23.1361 14.755 23.1099 14.4788Z" fill="#B49275"/>
<path d="M20.8551 13.3456C20.8071 13.2281 20.7805 13.0998 20.7539 12.9716C20.8179 12.9705 20.8819 12.9694 20.9459 12.9683C20.9227 13.0904 20.8996 13.2126 20.8551 13.3456Z" fill="#B49275"/>
<path d="M14.6275 11.1452C14.5142 11.2424 14.3857 11.3758 14.2543 11.3785C13.3612 11.3967 12.4675 11.3874 11.536 11.389C11.4743 11.3274 11.4505 11.2639 11.4268 11.1744C11.6927 10.5355 11.9586 9.9226 12.231 9.28106C12.5268 8.59214 12.8162 7.93181 13.1056 7.27148C13.1418 7.27217 13.1781 7.27285 13.2143 7.27353C13.6799 8.55597 14.1455 9.83841 14.6275 11.1452Z" fill="#B49275"/>
<path d="M9.9502 12.696C10.0465 12.6104 10.1516 12.5474 10.2567 12.4844C10.2806 12.5479 10.3044 12.6114 10.3282 12.675C10.2051 12.6895 10.0821 12.7041 9.9502 12.696Z" fill="#B49275"/>
<path d="M10.721 10.6118C10.7349 10.6892 10.7413 10.7514 10.7268 10.8086C10.7208 10.8325 10.6703 10.8456 10.6401 10.8636C10.6077 10.8439 10.5753 10.8241 10.543 10.8043C10.597 10.7344 10.651 10.6645 10.721 10.6118Z" fill="#B49275"/>
<path d="M12.7719 12.5699C12.7372 12.5994 12.7025 12.6109 12.6678 12.6223C12.6677 12.5879 12.6676 12.5535 12.6675 12.519C12.7023 12.53 12.7371 12.5409 12.7719 12.5699Z" fill="#B49275"/>
<path d="M25.1717 23.2934C24.5227 23.0931 23.8635 22.8677 23.1807 22.6263C23.232 22.59 23.322 22.5325 23.3797 22.5548C23.9767 22.7852 24.5684 23.0285 25.1717 23.2934Z" fill="#B49275"/>
<path d="M25.3258 23.3998C25.3162 23.3987 25.2938 23.3791 25.2573 23.3423C25.2665 23.3438 25.2898 23.3626 25.3258 23.3998Z" fill="#B49275"/>
<path d="M15.4003 9.15693C15.3345 9.16468 15.2722 9.15258 15.21 9.14048C15.2249 9.11058 15.2399 9.08068 15.2549 9.05078C15.3046 9.07955 15.3542 9.10831 15.4003 9.15693Z" fill="#B49275"/>
<path d="M21.9956 15.5884C22.0234 15.6885 22.0248 15.7874 22.0263 15.8864C21.9679 15.8805 21.9095 15.8746 21.8511 15.8687C21.8905 15.7748 21.9299 15.681 21.9956 15.5884Z" fill="#B49275"/>
<path d="M21.6911 21.9521C21.5973 21.9147 21.4943 21.853 21.3838 21.7651C21.4781 21.8019 21.58 21.8648 21.6911 21.9521Z" fill="#B49275"/>
<path d="M21.0348 21.7247C21.0024 21.7248 20.9524 21.7108 20.8965 21.6783C20.9328 21.6768 20.9749 21.6936 21.0348 21.7247Z" fill="#B49275"/>
</g>
<path d="M45.344 31H44.96L54.528 8.6L54.88 8.44L62.944 31H60.224L57.728 23.96H48.384L45.344 31ZM53.536 12.056L48.512 23.64H57.632L53.536 12.056ZM67.6258 13.496V15H70.1538V15.256H67.6258V31H65.3858V15.256H64.7138V15H65.3858V13.496C65.3858 11.1707 65.8871 9.51733 66.8898 8.536C67.8924 7.53333 69.5138 7.02133 71.7538 7V7.256C70.2818 7.27733 69.2258 7.77866 68.5858 8.76C67.9458 9.72 67.6258 11.2987 67.6258 13.496ZM78.517 16.376V15.704C77.557 16.088 76.6823 16.8667 75.893 18.04C75.1037 19.192 74.6877 20.28 74.645 21.304V31H72.405V15H74.645V20.088C74.9863 18.8507 75.637 17.688 76.597 16.6C77.557 15.4907 78.645 14.9147 79.861 14.872H79.989C80.4157 14.872 80.7677 15.0213 81.045 15.32C81.3437 15.5973 81.493 15.9493 81.493 16.376C81.493 16.8027 81.3437 17.1547 81.045 17.432C80.7677 17.7093 80.4157 17.848 79.989 17.848C79.5623 17.848 79.2103 17.7093 78.933 17.432C78.6557 17.1547 78.517 16.8027 78.517 16.376ZM87.169 31C86.2943 31 85.6223 30.808 85.153 30.424C84.705 30.04 84.4703 29.656 84.449 29.272L84.417 28.728V15H86.657V28.728C86.657 29.3467 86.7743 29.8267 87.009 30.168C87.265 30.488 87.5103 30.6587 87.745 30.68L88.129 30.744H89.121V31H87.169ZM84.609 11.416C84.353 11.16 84.225 10.84 84.225 10.456C84.225 10.072 84.353 9.752 84.609 9.496C84.865 9.21866 85.185 9.08 85.569 9.08C85.953 9.08 86.273 9.21866 86.529 9.496C86.8063 9.752 86.945 10.072 86.945 10.456C86.945 10.84 86.8063 11.16 86.529 11.416C86.273 11.672 85.953 11.8 85.569 11.8C85.185 11.8 84.865 11.672 84.609 11.416ZM97.5805 15.128C96.0658 15.128 94.7965 15.8533 93.7725 17.304C92.7698 18.7547 92.2685 20.76 92.2685 23.32C92.2685 25.88 92.7272 27.7787 93.6445 29.016C94.5832 30.2533 95.8098 30.872 97.3245 30.872C99.2232 30.872 100.909 30.552 102.381 29.912L102.477 30.136C100.962 30.7973 99.1912 31.128 97.1645 31.128C95.1378 31.128 93.4525 30.488 92.1085 29.208C90.7645 27.928 90.0925 25.9547 90.0925 23.288C90.0925 20.6213 90.7965 18.552 92.2045 17.08C93.6125 15.608 95.4045 14.872 97.5805 14.872C98.7965 14.872 99.9165 15.1493 100.941 15.704C101.986 16.2587 102.754 17.1013 103.245 18.232H101.197C100.877 17.1867 100.386 16.408 99.7245 15.896C99.0845 15.384 98.3698 15.128 97.5805 15.128ZM118.402 31C116.952 31 115.96 30.7227 115.426 30.168C114.936 29.6987 114.69 29.2933 114.69 28.952V28.28C113.645 30.1787 111.97 31.128 109.666 31.128C106.978 31.128 105.453 29.912 105.09 27.48C105.048 27.224 105.026 26.968 105.026 26.712C105.026 26.4347 105.069 26.136 105.154 25.816C105.24 25.496 105.485 25.144 105.89 24.76C106.701 23.992 108.482 23.5227 111.234 23.352C111.917 23.288 112.546 23.256 113.122 23.256C113.698 23.256 114.221 23.2773 114.69 23.32V18.008C114.648 17.9867 114.648 17.8907 114.69 17.72C114.733 17.528 114.69 17.2933 114.562 17.016C114.456 16.7173 114.306 16.4293 114.114 16.152C113.922 15.8747 113.581 15.64 113.09 15.448C112.6 15.2347 111.96 15.128 111.17 15.128C110.381 15.128 109.453 15.2773 108.386 15.576C107.341 15.8533 106.573 16.1307 106.082 16.408L105.954 16.184C107.853 15.3093 109.784 14.872 111.746 14.872C113.944 14.872 115.394 15.2667 116.098 16.056C116.653 16.6747 116.93 17.3253 116.93 18.008V28.728C116.93 29.3467 117.048 29.8267 117.282 30.168C117.538 30.488 117.794 30.6587 118.05 30.68L118.402 30.744H119.394V31H118.402ZM110.178 30.872C111.309 30.872 112.322 30.488 113.218 29.72C114.136 28.9307 114.626 28.1733 114.69 27.448V23.576C114.114 23.5333 113.528 23.512 112.93 23.512C112.354 23.512 111.778 23.544 111.202 23.608C109.581 23.8 108.525 24.1627 108.034 24.696C107.544 25.2293 107.298 25.9653 107.298 26.904C107.298 27.0747 107.309 27.2667 107.33 27.48C107.522 29.7413 108.472 30.872 110.178 30.872ZM144.111 9.944C142.169 9.19733 140.335 8.824 138.607 8.824C136.9 8.824 135.567 9.18667 134.607 9.912C133.647 10.6373 133.167 11.64 133.167 12.92C133.167 14.4773 133.977 15.6827 135.599 16.536C136.324 16.8987 137.113 17.24 137.967 17.56C138.841 17.8587 139.716 18.2 140.591 18.584C141.465 18.968 142.265 19.4053 142.991 19.896C143.716 20.3867 144.303 21.0693 144.751 21.944C145.199 22.7973 145.423 23.896 145.423 25.24C145.423 26.5627 145.049 27.6933 144.303 28.632C143.556 29.5707 142.649 30.2107 141.583 30.552C140.537 30.872 139.311 31.032 137.903 31.032C135.279 31.032 133.039 30.3813 131.183 29.08L131.343 28.824C132.047 29.3787 132.953 29.8373 134.062 30.2C135.193 30.5413 136.345 30.712 137.519 30.712C139.247 30.712 140.719 30.3173 141.935 29.528C143.172 28.7173 143.791 27.5333 143.791 25.976C143.791 24.2693 142.98 22.936 141.359 21.976C140.633 21.5493 139.833 21.1547 138.959 20.792C138.105 20.4293 137.241 20.056 136.367 19.672C135.492 19.2667 134.692 18.8187 133.967 18.328C132.345 17.2613 131.535 15.7467 131.535 13.784C131.535 12.2267 132.057 10.968 133.103 10.008C134.148 9.02667 135.716 8.536 137.807 8.536C139.919 8.536 142.063 8.89867 144.239 9.624L144.111 9.944ZM147.651 15.256V15H148.323V11.8H150.563V15H155.459V15.256H150.563V26.904C150.563 28.2907 150.713 29.2933 151.011 29.912C151.331 30.5307 151.982 30.84 152.963 30.84C153.966 30.84 154.979 30.6373 156.003 30.232L156.099 30.488C155.033 30.8933 153.806 31.096 152.419 31.096C151.054 31.096 150.03 30.8187 149.347 30.264C148.665 29.688 148.323 28.5573 148.323 26.872V15.256H147.651ZM164.489 31.128C162.249 31.128 160.425 30.488 159.017 29.208C157.609 27.928 156.905 25.9547 156.905 23.288C156.905 20.6213 157.63 18.552 159.081 17.08C160.553 15.608 162.409 14.872 164.649 14.872C166.91 14.872 168.745 15.512 170.153 16.792C171.561 18.072 172.265 20.0453 172.265 22.712C172.265 25.3787 171.529 27.448 170.057 28.92C168.606 30.392 166.75 31.128 164.489 31.128ZM164.713 15.128C163.092 15.128 161.748 15.8533 160.681 17.304C159.614 18.7333 159.081 20.7387 159.081 23.32C159.081 25.88 159.572 27.7787 160.553 29.016C161.534 30.2533 162.836 30.872 164.457 30.872C166.078 30.872 167.422 30.1573 168.489 28.728C169.556 27.2773 170.089 25.272 170.089 22.712C170.089 20.1307 169.598 18.2213 168.617 16.984C167.636 15.7467 166.334 15.128 164.713 15.128ZM187.466 31C186.592 31 185.92 30.808 185.45 30.424C185.002 30.04 184.768 29.656 184.746 29.272L184.714 28.728V18.68C184.714 16.9947 184.277 15.9173 183.402 15.448C182.954 15.2347 182.4 15.128 181.738 15.128C180.373 15.128 179.146 15.672 178.058 16.76C176.97 17.8267 176.426 18.7867 176.426 19.64V31H174.186V15H176.426V18.648C176.789 17.7307 177.461 16.8773 178.442 16.088C179.424 15.2773 180.501 14.872 181.674 14.872C182.848 14.872 183.797 14.9893 184.522 15.224C185.269 15.4373 185.813 15.7467 186.154 16.152C186.688 16.8133 186.954 17.6667 186.954 18.712V28.728C186.954 29.3467 187.072 29.8267 187.306 30.168C187.562 30.488 187.818 30.6587 188.074 30.68L188.426 30.744H189.418V31H187.466ZM192.894 23.192C192.894 25.8373 193.352 27.7787 194.27 29.016C195.208 30.2533 196.435 30.872 197.95 30.872C200.083 30.872 201.982 30.552 203.646 29.912L203.742 30.136C202.035 30.7973 200.104 31.128 197.95 31.128C195.816 31.128 194.078 30.488 192.734 29.208C191.39 27.928 190.718 25.9547 190.718 23.288C190.718 20.6213 191.422 18.552 192.83 17.08C194.238 15.608 196.03 14.872 198.206 14.872C199.955 14.872 201.427 15.3947 202.622 16.44C203.816 17.4853 204.414 19.032 204.414 21.08C204.414 21.1867 204.414 21.2933 204.414 21.4H192.99C192.926 21.976 192.894 22.5733 192.894 23.192ZM202.238 21.144C202.216 19.096 201.822 17.5813 201.054 16.6C200.286 15.6187 199.294 15.128 198.078 15.128C196.862 15.128 195.774 15.6613 194.814 16.728C193.875 17.7947 193.278 19.2667 193.022 21.144H202.238Z" fill="black"/>
<defs>
<clipPath id="clip0_1_1712">
<rect width="40" height="40" fill="white"/>
</clipPath>
</defs>
</svg>
