<svg width="24" height="24" viewBox="0 0 24 24" fill="none" xmlns="http://www.w3.org/2000/svg">
<path d="M4.5 1.5L0 6V7.5C0 7.5 3 9 6 9C9 9 12 7.5 12 7.5C12 7.5 15 9 18 9C21 9 24 7.5 24 7.5V6L19.5 1.5H4.5Z" fill="#52525B"/>
<path fill-rule="evenodd" clip-rule="evenodd" d="M1.5 22.4998V11.2779C2.72506 11.6467 4.32252 11.9998 6 11.9998C7.95375 11.9998 9.79895 11.5208 11.0737 11.0959C11.4139 10.9825 11.725 10.869 12 10.7627C12.2751 10.869 12.5861 10.9825 12.9263 11.0959C14.2011 11.5208 16.0463 11.9998 18 11.9998C19.6775 11.9998 21.275 11.6467 22.5 11.2779V22.4998H10.5V14.9998H6V22.4998H1.5ZM18 14.9998H15V19.4998H18V14.9998Z" fill="#52525B"/>
</svg>
